SplineFontDB: 3.2
FontName: Vegur-Regular
FullName: Vegur-Regular
FamilyName: Vegur
Weight: Regular
Copyright: copyright missing
Version: 007.000
ItalicAngle: 0
UnderlinePosition: -100
UnderlineWidth: 50
Ascent: 765
Descent: 235
InvalidEm: 0
sfntRevision: 0x00010000
LayerCount: 2
Layer: 0 0 "Back" 1
Layer: 1 0 "Fore" 0
XUID: [1021 815 -1288924735 30327]
StyleMap: 0x0040
FSType: 8
OS2Version: 3
OS2_WeightWidthSlopeOnly: 0
OS2_UseTypoMetrics: 0
CreationTime: 1360497785
ModificationTime: 1624566851
PfmFamily: 81
TTFWeight: 400
TTFWidth: 5
LineGap: 0
VLineGap: 0
Panose: 0 0 5 0 0 0 0 0 0 0
OS2TypoAscent: 765
OS2TypoAOffset: 0
OS2TypoDescent: -235
OS2TypoDOffset: 0
OS2TypoLinegap: 200
OS2WinAscent: 965
OS2WinAOffset: 0
OS2WinDescent: 235
OS2WinDOffset: 0
HheadAscent: 965
HheadAOffset: 0
HheadDescent: -235
HheadDOffset: 0
OS2SubXSize: 650
OS2SubYSize: 600
OS2SubXOff: 0
OS2SubYOff: 75
OS2SupXSize: 650
OS2SupYSize: 600
OS2SupXOff: 0
OS2SupYOff: 350
OS2StrikeYSize: 50
OS2StrikeYPos: 286
OS2CapHeight: 688
OS2XHeight: 478
OS2Vendor: 'UKWN'
OS2CodePages: 20000011.00000000
OS2UnicodeRanges: 00000003.00000000.00000000.00000000
Lookup: 4 0 1 "'liga' Standard Ligatures in Latin lookup 0" { "'liga' Standard Ligatures in Latin lookup 0 subtable"  } ['liga' ('DFLT' <'dflt' > 'latn' <'dflt' > ) ]
Lookup: 257 0 0 "'cpsp' Capital Spacing in Latin lookup 0" { "'cpsp' Capital Spacing in Latin lookup 0 subtable"  } ['cpsp' ('DFLT' <'dflt' > 'latn' <'dflt' > ) ]
Lookup: 258 0 0 "'kern' Horizontal Kerning in Latin lookup 1" { "'kern' Horizontal Kerning in Latin lookup 1 per glyph data 0"  "'kern' Horizontal Kerning in Latin lookup 1 kerning class 1"  } ['kern' ('DFLT' <'dflt' > 'latn' <'dflt' > ) ]
DEI: 91125
KernClass2: 14+ 24 "'kern' Horizontal Kerning in Latin lookup 1 kerning class 1"
 1 X
 1 Q
 51 O Oacute Ocircumflex Odieresis Ograve Oslash Otilde
 37 U Uacute Ucircumflex Udieresis Ugrave
 1 r
 1 L
 1 T
 37 W Wacute Wcircumflex Wdieresis Wgrave
 1 F

StartChar: .notdef
Encoding: 65536 -1 0
Width: 500
Flags: MW
HStem: 0 50<80 420 80 500> 650 50<80 420 80 80>
VStem: 0 50<95 605 95 700> 450 50<95 605 605 605>
LayerCount: 2
Fore
SplineSet
0 0 m 1
 0 700 l 1
 500 700 l 1
 500 0 l 1
 0 0 l 1
250 395 m 1
 420 650 l 1
 80 650 l 1
 250 395 l 1
280 350 m 1
 450 95 l 1
 450 605 l 1
 280 350 l 1
80 50 m 1
 420 50 l 1
 250 305 l 1
 80 50 l 1
50 605 m 1
 50 95 l 1
 220 350 l 1
 50 605 l 1
EndSplineSet
Validated: 1
EndChar

StartChar: A
Encoding: 65 65 1
Width: 596
Flags: MW
HStem: 227 72<196 399 196 422 173 399> 615 73<297 297>
VStem: 13 572<0 0>
LayerCount: 2
Fore
SplineSet
422 227 m 1
 173 227 l 1
 100 0 l 1
 13 0 l 1
 246 688 l 1
 352 688 l 1
 585 0 l 1
 495 0 l 1
 422 227 l 1
399 299 m 1
 297 615 l 1
 196 299 l 1
 399 299 l 1
EndSplineSet
Validated: 1
Position2: "'cpsp' Capital Spacing in Latin lookup 0 subtable" dx=5 dy=0 dh=10 dv=0
EndChar

StartChar: Aacute
Encoding: 193 193 2
Width: 596
Flags: MW
HStem: 227 72<173 399 196 399 196 422> 615 73<297 297> 740 115
VStem: 13 572<0 0>
LayerCount: 2
Fore
SplineSet
328 742 m 1
 260 738 l 1
 343 853 l 1
 434 857 l 1
 328 742 l 1
173 227 m 1
 100 0 l 1
 13 0 l 1
 246 688 l 1
 352 688 l 1
 585 0 l 1
 495 0 l 1
 422 227 l 1
 173 227 l 1
297 615 m 1
 196 299 l 1
 399 299 l 1
 297 615 l 1
EndSplineSet
Validated: 1
Position2: "'cpsp' Capital Spacing in Latin lookup 0 subtable" dx=5 dy=0 dh=10 dv=0
EndChar

StartChar: Abreve
Encoding: 258 258 3
Width: 596
Flags: MW
HStem: 227 72<173 399 196 399 196 422> 615 73<297 297> 739 47<282 316 282 336>
VStem: 194 45<824.5 855> 359 45<824.5 855>
LayerCount: 2
Fore
SplineSet
194 855 m 1
 239 855 l 1
 243 811 265 786 299 786 c 0
 333 786 355 811 359 855 c 1
 404 855 l 1
 404 794 373 739 299 739 c 0
 224 739 194 794 194 855 c 1
173 227 m 1
 100 0 l 1
 13 0 l 1
 246 688 l 1
 352 688 l 1
 585 0 l 1
 495 0 l 1
 422 227 l 1
 173 227 l 1
297 615 m 1
 196 299 l 1
 399 299 l 1
 297 615 l 1
EndSplineSet
Validated: 1
EndChar

StartChar: Acircumflex
Encoding: 194 194 4
Width: 596
Flags: MW
HStem: 227 72<173 399 196 399 196 422> 615 73<297 297> 741 116<183 329 183 329 270 416 270 352>
VStem: 13 572<0 0>
LayerCount: 2
Fore
SplineSet
416 741 m 1
 352 741 l 1
 299 816 l 1
 246 741 l 1
 183 741 l 1
 270 857 l 1
 329 857 l 1
 416 741 l 1
173 227 m 1
 100 0 l 1
 13 0 l 1
 246 688 l 1
 352 688 l 1
 585 0 l 1
 495 0 l 1
 422 227 l 1
 173 227 l 1
297 615 m 1
 196 299 l 1
 399 299 l 1
 297 615 l 1
EndSplineSet
Validated: 1
Position2: "'cpsp' Capital Spacing in Latin lookup 0 subtable" dx=5 dy=0 dh=10 dv=0
EndChar

StartChar: Adieresis
Encoding: 196 196 5
Width: 596
Flags: MW
HStem: 227 72<173 399 196 399 196 422> 615 73<297 297> 737 92<208.5 233.5 364.5 389.5>
VStem: 175 92<770.5 795.5> 331 92<770.5 795.5>
LayerCount: 2
Fore
SplineSet
221 829 m 0
 246 829 267 808 267 783 c 0
 267 758 246 737 221 737 c 0
 196 737 175 758 175 783 c 0
 175 808 196 829 221 829 c 0
377 829 m 0
 402 829 423 808 423 783 c 0
 423 758 402 737 377 737 c 0
 352 737 331 758 331 783 c 0
 331 808 352 829 377 829 c 0
173 227 m 1
 100 0 l 1
 13 0 l 1
 246 688 l 1
 352 688 l 1
 585 0 l 1
 495 0 l 1
 422 227 l 1
 173 227 l 1
297 615 m 1
 196 299 l 1
 399 299 l 1
 297 615 l 1
EndSplineSet
Validated: 1
Position2: "'cpsp' Capital Spacing in Latin lookup 0 subtable" dx=5 dy=0 dh=10 dv=0
EndChar

StartChar: Agrave
Encoding: 192 192 6
Width: 596
Flags: MW
HStem: 227 72<173 399 196 399 196 422> 615 73<297 297> 740 115
VStem: 13 572<0 0>
LayerCount: 2
Fore
SplineSet
254 853 m 1
 337 738 l 1
 269 742 l 1
 163 857 l 1
 254 853 l 1
173 227 m 1
 100 0 l 1
 13 0 l 1
 246 688 l 1
 352 688 l 1
 585 0 l 1
 495 0 l 1
 422 227 l 1
 173 227 l 1
297 615 m 1
 196 299 l 1
 399 299 l 1
 297 615 l 1
EndSplineSet
Validated: 1
Position2: "'cpsp' Capital Spacing in Latin lookup 0 subtable" dx=5 dy=0 dh=10 dv=0
EndChar

StartChar: Aring
Encoding: 197 197 7
Width: 596
Flags: MW
HStem: 227 72<173 399 196 399 196 422> 615 73<297 297> 731 31<289.5 308.5 289.5 321.5> 846 31<289.5 308.5>
VStem: 221 44<790 817.5 790 826.5> 333 44<790 817.5>
LayerCount: 2
Fore
SplineSet
299 877 m 0
 344 877 377 849 377 804 c 0
 377 759 344 731 299 731 c 0
 254 731 221 759 221 804 c 0
 221 849 254 877 299 877 c 0
299 846 m 0
 280 846 265 831 265 804 c 0
 265 776 280 762 299 762 c 0
 318 762 333 776 333 804 c 0
 333 831 318 846 299 846 c 0
173 227 m 1
 100 0 l 1
 13 0 l 1
 246 688 l 1
 352 688 l 1
 585 0 l 1
 495 0 l 1
 422 227 l 1
 173 227 l 1
297 615 m 1
 196 299 l 1
 399 299 l 1
 297 615 l 1
EndSplineSet
Validated: 1
Position2: "'cpsp' Capital Spacing in Latin lookup 0 subtable" dx=5 dy=0 dh=10 dv=0
EndChar

StartChar: Atilde
Encoding: 195 195 8
Width: 596
Flags: MW
HStem: 227 72<173 399 196 399 196 422> 615 73<297 297> 758 51<346.5 358 346.5 369> 781 51<240 251.5>
VStem: 189 38<757 763.5 757 766 757 788> 371 38<826.5 833>
LayerCount: 2
Fore
SplineSet
409 833 m 1xac
 409 824 l 2
 409 780 386 758 352 758 c 0xec
 333 758 313 764 291 770 c 0
 270 777 256 781 247 781 c 0
 233 781 227 770 227 757 c 1
 189 757 l 1
 189 766 l 2
 189 810 212 832 246 832 c 0x9c
 265 832 285 826 307 819 c 0
 328 813 342 809 351 809 c 0
 365 809 371 820 371 833 c 1
 409 833 l 1xac
173 227 m 1
 100 0 l 1
 13 0 l 1
 246 688 l 1
 352 688 l 1
 585 0 l 1
 495 0 l 1
 422 227 l 1
 173 227 l 1
297 615 m 1
 196 299 l 1
 399 299 l 1
 297 615 l 1
EndSplineSet
Validated: 1
Position2: "'cpsp' Capital Spacing in Latin lookup 0 subtable" dx=5 dy=0 dh=10 dv=0
EndChar

StartChar: AE
Encoding: 198 198 9
Width: 852
Flags: MW
HStem: 0 72<532 813 532 813> 227 72<239 421 239 429 205 421> 311 72<503 752 503 503> 612 72<467 773 467 467>
VStem: 1 812<0 72>
LayerCount: 2
Fore
SplineSet
813 72 m 1
 813 0 l 1
 457 0 l 1
 429 227 l 1
 205 227 l 1xf8
 98 0 l 1
 1 0 l 1
 340 684 l 1
 773 684 l 1
 773 612 l 1
 467 612 l 1
 495 383 l 1
 752 383 l 1
 752 311 l 1
 503 311 l 1
 532 72 l 1
 813 72 l 1
421 299 m 1
 383 607 l 1
 239 299 l 1
 421 299 l 1
EndSplineSet
Validated: 1
Position2: "'cpsp' Capital Spacing in Latin lookup 0 subtable" dx=5 dy=0 dh=10 dv=0
EndChar

StartChar: B
Encoding: 66 66 10
Width: 517
Flags: MW
HStem: -10 72<223.5 274 223.5 294.5> 306 67<158 200 158 200 200 205> 626 72<217 279>
VStem: 76 82<66 306 66 373 373 621> 380 89<471.5 542.5> 383 90<137.5 212>
LayerCount: 2
Fore
SplineSet
76 3 m 1xf4
 76 685 l 1
 134 693 190 698 226 698 c 0
 397 698 469 623 469 513 c 0xf8
 469 430 401 369 316 352 c 1
 412 339 473 265 473 183 c 0
 473 63 369 -10 220 -10 c 0
 165 -10 118 -6 76 3 c 1xf4
158 373 m 1
 200 373 l 2
 304 373 380 417 380 502 c 0
 380 583 330 626 228 626 c 0
 206 626 190 625 158 621 c 1
 158 373 l 1
158 306 m 1
 158 66 l 1
 184 64 213 62 234 62 c 0
 314 62 383 102 383 173 c 0xf4
 383 251 329 306 205 306 c 2
 158 306 l 1
EndSplineSet
Validated: 1
Position2: "'cpsp' Capital Spacing in Latin lookup 0 subtable" dx=5 dy=0 dh=10 dv=0
EndChar

StartChar: C
Encoding: 67 67 11
Width: 621
Flags: MW
HStem: -10 72<329 422> 626 72<335 437.5>
VStem: 44 92<248.5 439.5 248.5 462.5>
LayerCount: 2
Fore
SplineSet
577 103 m 1
 584 29 l 1
 524 0 459 -10 385 -10 c 0
 190 -10 44 119 44 339 c 0
 44 586 226 698 404 698 c 0
 484 698 550 682 592 656 c 1
 586 581 l 1
 533 612 476 626 399 626 c 0
 271 626 136 533 136 346 c 0
 136 151 262 62 396 62 c 0
 465 62 519 74 577 103 c 1
EndSplineSet
Validated: 1
Position2: "'cpsp' Capital Spacing in Latin lookup 0 subtable" dx=5 dy=0 dh=10 dv=0
EndChar

StartChar: Ccedilla
Encoding: 199 199 12
Width: 621
Flags: MW
HStem: -168 38<356 380 356 392.5> -9 71<362 362> 626 72<335 437.5>
VStem: 44 92<248.5 439.5 248.5 462.5> 409 58<-106 -84>
LayerCount: 2
Fore
SplineSet
592 656 m 1
 586 581 l 1
 533 612 476 626 399 626 c 0
 271 626 136 533 136 346 c 0
 136 151 262 62 396 62 c 0
 465 62 519 74 577 103 c 1
 584 29 l 1
 530 3 472 -8 407 -10 c 1
 398 -26 l 1
 441 -33 467 -55 467 -93 c 0
 467 -143 427 -168 358 -168 c 0
 341 -168 320 -164 304 -155 c 1
 309 -116 l 1
 325 -125 345 -130 367 -130 c 0
 393 -130 409 -116 409 -96 c 0
 409 -72 392 -58 336 -58 c 1
 362 -9 l 1
 179 0 44 128 44 339 c 0
 44 586 226 698 404 698 c 0
 484 698 550 682 592 656 c 1
EndSplineSet
Validated: 1
Position2: "'cpsp' Capital Spacing in Latin lookup 0 subtable" dx=5 dy=0 dh=10 dv=0
EndChar

StartChar: D
Encoding: 68 68 13
Width: 665
Flags: MW
HStem: -10 72<215.5 312.5 215.5 334.5> 626 72<229 338>
VStem: 76 82<67 620 67 686 67 686> 535 89<256.5 437>
LayerCount: 2
Fore
SplineSet
76 3 m 5
 76 686 l 5
 136 693 199 698 243 698 c 4
 500 698 624 560 624 358 c 4
 624 123 452 -10 217 -10 c 4
 179 -10 116 -5 76 3 c 5
158 620 m 5
 158 67 l 5
 180 64 208 62 223 62 c 4
 402 62 535 165 535 348 c 4
 535 526 436 626 240 626 c 4
 218 626 188 624 158 620 c 5
EndSplineSet
Validated: 1
Position2: "'cpsp' Capital Spacing in Latin lookup 0 subtable" dx=5 dy=0 dh=10 dv=0
EndChar

StartChar: E
Encoding: 69 69 14
Width: 485
Flags: MW
HStem: 0 72<158 446 158 446> 311 72<158 410 158 410> 612 72<158 442 158 158>
VStem: 76 82<72 311 383 612>
LayerCount: 2
Fore
SplineSet
442 612 m 1
 158 612 l 1
 158 383 l 1
 410 383 l 1
 410 311 l 1
 158 311 l 1
 158 72 l 1
 446 72 l 1
 446 0 l 1
 76 0 l 1
 76 684 l 1
 442 684 l 1
 442 612 l 1
EndSplineSet
Validated: 1
Position2: "'cpsp' Capital Spacing in Latin lookup 0 subtable" dx=5 dy=0 dh=10 dv=0
EndChar

StartChar: Eacute
Encoding: 201 201 15
Width: 485
Flags: MW
HStem: 0 72<158 446 158 446> 311 72<158 410 158 410> 612 72<158 158 158 442> 740 115
VStem: 76 82<72 311 383 612>
LayerCount: 2
Fore
SplineSet
292 742 m 1
 224 738 l 1
 307 853 l 1
 398 857 l 1
 292 742 l 1
158 612 m 1
 158 383 l 1
 410 383 l 1
 410 311 l 1
 158 311 l 1
 158 72 l 1
 446 72 l 1
 446 0 l 1
 76 0 l 1
 76 684 l 1
 442 684 l 1
 442 612 l 1
 158 612 l 1
EndSplineSet
Validated: 1
Position2: "'cpsp' Capital Spacing in Latin lookup 0 subtable" dx=5 dy=0 dh=10 dv=0
EndChar

StartChar: Ecircumflex
Encoding: 202 202 16
Width: 485
Flags: MW
HStem: 0 72<158 446 158 446> 311 72<158 410 158 410> 612 72<158 158 158 442> 741 116<147 293 147 293 234 380 234 316>
VStem: 76 82<72 311 383 612>
LayerCount: 2
Fore
SplineSet
380 741 m 1
 316 741 l 1
 263 816 l 1
 210 741 l 1
 147 741 l 1
 234 857 l 1
 293 857 l 1
 380 741 l 1
158 612 m 1
 158 383 l 1
 410 383 l 1
 410 311 l 1
 158 311 l 1
 158 72 l 1
 446 72 l 1
 446 0 l 1
 76 0 l 1
 76 684 l 1
 442 684 l 1
 442 612 l 1
 158 612 l 1
EndSplineSet
Validated: 1
Position2: "'cpsp' Capital Spacing in Latin lookup 0 subtable" dx=5 dy=0 dh=10 dv=0
EndChar

StartChar: Edieresis
Encoding: 203 203 17
Width: 485
Flags: MW
HStem: 0 72<158 446 158 446> 311 72<158 410 158 410> 612 72<158 442 158 158> 737 92<172.5 197.5 328.5 353.5>
VStem: 76 82<72 311 383 612> 139 92<770.5 795.5> 295 92<770.5 795.5>
LayerCount: 2
Fore
SplineSet
185 829 m 0xf6
 210 829 231 808 231 783 c 0
 231 758 210 737 185 737 c 0
 160 737 139 758 139 783 c 0
 139 808 160 829 185 829 c 0xf6
341 829 m 0
 366 829 387 808 387 783 c 0
 387 758 366 737 341 737 c 0
 316 737 295 758 295 783 c 0
 295 808 316 829 341 829 c 0
442 612 m 1
 158 612 l 1
 158 383 l 1
 410 383 l 1
 410 311 l 1
 158 311 l 1
 158 72 l 1
 446 72 l 1
 446 0 l 1
 76 0 l 1
 76 684 l 1xe8
 442 684 l 1
 442 612 l 1
EndSplineSet
Validated: 1
Position2: "'cpsp' Capital Spacing in Latin lookup 0 subtable" dx=5 dy=0 dh=10 dv=0
EndChar

StartChar: Egrave
Encoding: 200 200 18
Width: 485
Flags: MW
HStem: 0 72<158 446 158 446> 311 72<158 410 158 410> 612 72<158 442 158 158> 740 115
VStem: 76 82<72 311 383 612>
LayerCount: 2
Fore
SplineSet
218 853 m 1
 301 738 l 1
 233 742 l 1
 127 857 l 1
 218 853 l 1
442 612 m 1
 158 612 l 1
 158 383 l 1
 410 383 l 1
 410 311 l 1
 158 311 l 1
 158 72 l 1
 446 72 l 1
 446 0 l 1
 76 0 l 1
 76 684 l 1
 442 684 l 1
 442 612 l 1
EndSplineSet
Validated: 1
Position2: "'cpsp' Capital Spacing in Latin lookup 0 subtable" dx=5 dy=0 dh=10 dv=0
EndChar

StartChar: F
Encoding: 70 70 19
Width: 459
Flags: MW
HStem: 277 72<158 410 158 410> 612 72<158 442 158 158>
VStem: 76 82<0 277 349 612>
LayerCount: 2
Fore
SplineSet
442 612 m 1
 158 612 l 1
 158 349 l 1
 410 349 l 1
 410 277 l 1
 158 277 l 1
 158 0 l 1
 76 0 l 1
 76 684 l 1
 442 684 l 1
 442 612 l 1
EndSplineSet
Validated: 1
Position2: "'cpsp' Capital Spacing in Latin lookup 0 subtable" dx=5 dy=0 dh=10 dv=0
EndChar

StartChar: G
Encoding: 71 71 20
Width: 653
Flags: MW
HStem: -10 72<309 398.5 309 404> 259 72<359 506 359 588> 627 71<326 431>
VStem: 44 92<251 440.5 251 460.5> 506 82<83 259 259 259>
LayerCount: 2
Fore
SplineSet
588 331 m 1
 588 29 l 1
 532 5 436 -10 372 -10 c 0
 173 -10 44 115 44 339 c 0
 44 582 223 698 401 698 c 0
 478 698 553 682 595 654 c 1
 589 577 l 1
 536 608 471 627 391 627 c 0
 261 627 136 534 136 347 c 0
 136 155 237 62 381 62 c 0
 416 62 471 69 506 83 c 1
 506 259 l 1
 359 259 l 1
 359 331 l 1
 588 331 l 1
EndSplineSet
Validated: 1
Position2: "'cpsp' Capital Spacing in Latin lookup 0 subtable" dx=5 dy=0 dh=10 dv=0
EndChar

StartChar: Gbreve
Encoding: 286 286 21
Width: 653
Flags: MW
HStem: -10 72<309 398.5 309 404> 259 72<359 506 359 588> 627 71<326 431> 739 47<345 379 345 399>
VStem: 44 92<251 440.5 251 460.5> 257 45<824.5 855> 422 45<824.5 855> 506 82<83 259 259 259>
LayerCount: 2
Fore
SplineSet
257 855 m 1
 302 855 l 1
 306 811 328 786 362 786 c 0
 396 786 418 811 422 855 c 1
 467 855 l 1
 467 794 436 739 362 739 c 0
 287 739 257 794 257 855 c 1
588 331 m 1
 588 29 l 1
 532 5 436 -10 372 -10 c 0
 173 -10 44 115 44 339 c 0
 44 582 223 698 401 698 c 0
 478 698 553 682 595 654 c 1
 589 577 l 1
 536 608 471 627 391 627 c 0
 261 627 136 534 136 347 c 0
 136 155 237 62 381 62 c 0
 416 62 471 69 506 83 c 1
 506 259 l 1
 359 259 l 1
 359 331 l 1
 588 331 l 1
EndSplineSet
Validated: 1
EndChar

StartChar: H
Encoding: 72 72 22
Width: 672
Flags: MW
HStem: 311 72<158 520 158 520>
VStem: 76 82<0 311 0 383 383 688> 520 82<0 311 311 311 383 688>
LayerCount: 2
Fore
SplineSet
602 0 m 1
 520 0 l 1
 520 311 l 1
 158 311 l 1
 158 0 l 1
 76 0 l 1
 76 688 l 1
 158 688 l 1
 158 383 l 1
 520 383 l 1
 520 688 l 1
 602 688 l 1
 602 0 l 1
EndSplineSet
Validated: 1
Position2: "'cpsp' Capital Spacing in Latin lookup 0 subtable" dx=5 dy=0 dh=10 dv=0
EndChar

StartChar: I
Encoding: 73 73 23
Width: 228
Flags: MW
HStem: 0 688<76 158 76 158>
VStem: 76 82<0 688>
LayerCount: 2
Fore
SplineSet
158 0 m 1
 76 0 l 1
 76 688 l 1
 158 688 l 1
 158 0 l 1
EndSplineSet
Validated: 1
Position2: "'cpsp' Capital Spacing in Latin lookup 0 subtable" dx=5 dy=0 dh=10 dv=0
EndChar

StartChar: IJ
Encoding: 306 306 24
Width: 467
Flags: MW
HStem: -214 902<76 162>
VStem: 76 82<0 688 0 688> 317 82<143 145 145 688>
LayerCount: 2
Fore
SplineSet
76 0 m 1
 76 688 l 1
 158 688 l 1
 158 0 l 1
 76 0 l 1
399 688 m 1
 399 145 l 2
 399 -52 319 -149 162 -214 c 1
 129 -143 l 1
 257 -89 317 -23 317 143 c 2
 317 688 l 1
 399 688 l 1
EndSplineSet
Validated: 1
Position2: "'cpsp' Capital Spacing in Latin lookup 0 subtable" dx=5 dy=0 dh=10 dv=0
EndChar

StartChar: Iacute
Encoding: 205 205 25
Width: 228
Flags: MW
HStem: 748 115
VStem: 76 82<0 688 0 688>
LayerCount: 2
Fore
SplineSet
143 750 m 1
 75 746 l 1
 158 861 l 1
 249 865 l 1
 143 750 l 1
76 0 m 1
 76 688 l 1
 158 688 l 1
 158 0 l 1
 76 0 l 1
EndSplineSet
Validated: 1
Position2: "'cpsp' Capital Spacing in Latin lookup 0 subtable" dx=5 dy=0 dh=10 dv=0
EndChar

StartChar: Icircumflex
Encoding: 206 206 26
Width: 228
Flags: MW
HStem: 749 116<-3 143 -3 143 84 230 84 166>
VStem: 76 82<0 688 0 688>
LayerCount: 2
Fore
SplineSet
230 749 m 1
 166 749 l 1
 113 824 l 1
 60 749 l 1
 -3 749 l 1
 84 865 l 1
 143 865 l 1
 230 749 l 1
76 0 m 1
 76 688 l 1
 158 688 l 1
 158 0 l 1
 76 0 l 1
EndSplineSet
Validated: 1
Position2: "'cpsp' Capital Spacing in Latin lookup 0 subtable" dx=5 dy=0 dh=10 dv=0
EndChar

StartChar: Idieresis
Encoding: 207 207 27
Width: 228
Flags: MW
HStem: 745 92<23.5 48.5 179.5 204.5>
VStem: -10 92<778.5 803.5> 76 82<0 688 0 688> 146 92<778.5 803.5>
LayerCount: 2
Fore
SplineSet
36 837 m 0xd0
 61 837 82 816 82 791 c 0
 82 766 61 745 36 745 c 0
 11 745 -10 766 -10 791 c 0
 -10 816 11 837 36 837 c 0xd0
192 837 m 0
 217 837 238 816 238 791 c 0
 238 766 217 745 192 745 c 0
 167 745 146 766 146 791 c 0
 146 816 167 837 192 837 c 0
76 0 m 1xa0
 76 688 l 1
 158 688 l 1
 158 0 l 1
 76 0 l 1xa0
EndSplineSet
Validated: 1
Position2: "'cpsp' Capital Spacing in Latin lookup 0 subtable" dx=5 dy=0 dh=10 dv=0
EndChar

StartChar: Idotaccent
Encoding: 304 304 28
Width: 234
Flags: MW
HStem: 745 102<103 131>
VStem: 76 82<0 688 0 688>
LayerCount: 2
Fore
SplineSet
117 847 m 0
 145 847 168 824 168 796 c 0
 168 768 145 745 117 745 c 0
 89 745 66 768 66 796 c 0
 66 824 89 847 117 847 c 0
76 0 m 1
 76 688 l 1
 158 688 l 1
 158 0 l 1
 76 0 l 1
EndSplineSet
Validated: 1
EndChar

StartChar: Igrave
Encoding: 204 204 29
Width: 228
Flags: MW
HStem: 748 115
VStem: 76 82<0 688 0 688>
LayerCount: 2
Fore
SplineSet
69 861 m 1
 152 746 l 1
 84 750 l 1
 -22 865 l 1
 69 861 l 1
76 0 m 1
 76 688 l 1
 158 688 l 1
 158 0 l 1
 76 0 l 1
EndSplineSet
Validated: 1
Position2: "'cpsp' Capital Spacing in Latin lookup 0 subtable" dx=5 dy=0 dh=10 dv=0
EndChar

StartChar: J
Encoding: 74 74 30
Width: 239
Flags: MW
HStem: -214 902<-66 171>
VStem: 89 82<143 145 145 688>
LayerCount: 2
Fore
SplineSet
171 688 m 1
 171 145 l 2
 171 -52 91 -149 -66 -214 c 1
 -99 -143 l 1
 29 -89 89 -23 89 143 c 2
 89 688 l 1
 171 688 l 1
EndSplineSet
Validated: 1
Position2: "'cpsp' Capital Spacing in Latin lookup 0 subtable" dx=5 dy=0 dh=10 dv=0
EndChar

StartChar: K
Encoding: 75 75 31
Width: 532
Flags: MW
HStem: 0 688<76 158 76 158 443 540 76 428>
VStem: 76 82<0 257 341 688>
LayerCount: 2
Fore
SplineSet
251 340 m 1
 540 0 l 1
 428 0 l 1
 187 290 l 1
 158 257 l 1
 158 0 l 1
 76 0 l 1
 76 688 l 1
 158 688 l 1
 158 341 l 1
 443 688 l 1
 544 688 l 1
 251 340 l 1
EndSplineSet
Validated: 1
Position2: "'cpsp' Capital Spacing in Latin lookup 0 subtable" dx=5 dy=0 dh=10 dv=0
EndChar

StartChar: L
Encoding: 76 76 32
Width: 468
Flags: MW
HStem: 0 72<158 449 158 449>
VStem: 76 82<72 72 72 688>
LayerCount: 2
Fore
SplineSet
158 72 m 1
 449 72 l 1
 449 0 l 1
 76 0 l 1
 76 688 l 1
 158 688 l 1
 158 72 l 1
EndSplineSet
Validated: 1
Position2: "'cpsp' Capital Spacing in Latin lookup 0 subtable" dx=5 dy=0 dh=10 dv=0
EndChar

StartChar: M
Encoding: 77 77 33
Width: 840
Flags: HMW
HStem: 4 74 628 60
VStem: 77 78 688 80
LayerCount: 2
Fore
SplineSet
207 688 m 1
 367 258 l 2
 389 198 408 138 423 78 c 1
 438 138 457 198 479 258 c 2
 639 688 l 1
 763 688 l 1
 773 0 l 1
 691 0 l 1
 685 418 l 2
 684.816496581 429.010205144 684.734013676 441.030615433 684.734013676 453.69047867 c 0
 684.734013676 510.020410289 686.367006838 579.010205144 688 628 c 1
 674 566 647 478 624 418 c 2
 466 4 l 1
 377 4 l 1
 219 418 l 2
 203 458 173 553 154 628 c 1
 155.726649916 576.200502516 158.198629816 487.13450587 158.198629816 438.017447245 c 0
 158.198629816 430.24160805 158.136675042 423.467001677 158 418 c 2
 152 0 l 1
 72 0 l 1
 82 688 l 1
 207 688 l 1
EndSplineSet
Validated: 1
Position2: "'cpsp' Capital Spacing in Latin lookup 0 subtable" dx=5 dy=0 dh=10 dv=0
EndChar

StartChar: N
Encoding: 78 78 34
Width: 658
Flags: MW
HStem: 0 688<68 146 68 165 512 590 68 590 68 493>
VStem: 68 78<0 398 0 688> 512 78<298 688>
LayerCount: 2
Fore
SplineSet
590 0 m 1
 493 0 l 1
 248 398 l 2
 210 458 181 506 143 582 c 1
 146 502 146 458 146 398 c 2
 146 0 l 1
 68 0 l 1
 68 688 l 1
 165 688 l 1
 406 298 l 2
 442 238 486 167 515 99 c 1
 512 174 512 238 512 298 c 2
 512 688 l 1
 590 688 l 1
 590 0 l 1
EndSplineSet
Validated: 1
Position2: "'cpsp' Capital Spacing in Latin lookup 0 subtable" dx=5 dy=0 dh=10 dv=0
EndChar

StartChar: Ntilde
Encoding: 209 209 35
Width: 658
Flags: MW
HStem: 758 51<376.5 388 376.5 399> 781 51<270 281.5>
VStem: 68 78<0 398 0 688> 219 38<757 763.5 757 766 757 788> 401 38<826.5 833> 512 78<298 688 0 688>
LayerCount: 2
Fore
SplineSet
439 833 m 1xac
 439 824 l 2
 439 780 416 758 382 758 c 0xac
 363 758 343 764 321 770 c 0
 300 777 286 781 277 781 c 0
 263 781 257 770 257 757 c 1
 219 757 l 1
 219 766 l 2
 219 810 242 832 276 832 c 0x7c
 295 832 315 826 337 819 c 0
 358 813 372 809 381 809 c 0
 395 809 401 820 401 833 c 1
 439 833 l 1xac
493 0 m 1
 248 398 l 2
 210 458 181 506 143 582 c 1
 146 502 146 458 146 398 c 2
 146 0 l 1
 68 0 l 1
 68 688 l 1
 165 688 l 1
 406 298 l 2
 442 238 486 167 515 99 c 1
 512 174 512 238 512 298 c 2
 512 688 l 1
 590 688 l 1
 590 0 l 1
 493 0 l 1
EndSplineSet
Validated: 1
Position2: "'cpsp' Capital Spacing in Latin lookup 0 subtable" dx=5 dy=0 dh=10 dv=0
EndChar

StartChar: O
Encoding: 79 79 36
Width: 708
Flags: MW
HStem: -10 72<293.5 414.5 293.5 448> 626 72<293.5 414.5>
VStem: 36 92<249 439 249 452.5> 580 92<249 439>
LayerCount: 2
Fore
SplineSet
354 698 m 0
 542 698 672 561 672 344 c 0
 672 127 542 -10 354 -10 c 0
 166 -10 36 127 36 344 c 0
 36 561 166 698 354 698 c 0
354 626 m 0
 233 626 128 534 128 344 c 0
 128 154 233 62 354 62 c 0
 475 62 580 154 580 344 c 0
 580 534 475 626 354 626 c 0
EndSplineSet
Validated: 1
Position2: "'cpsp' Capital Spacing in Latin lookup 0 subtable" dx=5 dy=0 dh=10 dv=0
EndChar

StartChar: Oacute
Encoding: 211 211 37
Width: 708
Flags: MW
HStem: -10 72<293.5 414.5 293.5 448> 626 72<293.5 414.5> 740 115
VStem: 36 92<249 439 249 452.5> 580 92<249 439>
LayerCount: 2
Fore
SplineSet
383 742 m 1
 315 738 l 1
 398 853 l 1
 489 857 l 1
 383 742 l 1
354 698 m 0
 542 698 672 561 672 344 c 0
 672 127 542 -10 354 -10 c 0
 166 -10 36 127 36 344 c 0
 36 561 166 698 354 698 c 0
354 626 m 0
 233 626 128 534 128 344 c 0
 128 154 233 62 354 62 c 0
 475 62 580 154 580 344 c 0
 580 534 475 626 354 626 c 0
EndSplineSet
Validated: 1
Position2: "'cpsp' Capital Spacing in Latin lookup 0 subtable" dx=5 dy=0 dh=10 dv=0
EndChar

StartChar: Ocircumflex
Encoding: 212 212 38
Width: 708
Flags: MW
HStem: -10 72<293.5 414.5 293.5 448> 626 72<293.5 414.5> 741 116<238 384 238 384 325 471 325 407>
VStem: 36 92<249 439 249 452.5> 580 92<249 439>
LayerCount: 2
Fore
SplineSet
471 741 m 1
 407 741 l 1
 354 816 l 1
 301 741 l 1
 238 741 l 1
 325 857 l 1
 384 857 l 1
 471 741 l 1
354 698 m 0
 542 698 672 561 672 344 c 0
 672 127 542 -10 354 -10 c 0
 166 -10 36 127 36 344 c 0
 36 561 166 698 354 698 c 0
354 626 m 0
 233 626 128 534 128 344 c 0
 128 154 233 62 354 62 c 0
 475 62 580 154 580 344 c 0
 580 534 475 626 354 626 c 0
EndSplineSet
Validated: 1
Position2: "'cpsp' Capital Spacing in Latin lookup 0 subtable" dx=5 dy=0 dh=10 dv=0
EndChar

StartChar: Odieresis
Encoding: 214 214 39
Width: 708
Flags: MW
HStem: -10 72<293.5 414.5 293.5 448> 626 72<293.5 414.5> 737 92<263.5 288.5 419.5 444.5>
VStem: 36 92<249 439 249 452.5> 230 92<770.5 795.5> 386 92<770.5 795.5> 580 92<249 439>
LayerCount: 2
Fore
SplineSet
276 829 m 0
 301 829 322 808 322 783 c 0
 322 758 301 737 276 737 c 0
 251 737 230 758 230 783 c 0
 230 808 251 829 276 829 c 0
432 829 m 0
 457 829 478 808 478 783 c 0
 478 758 457 737 432 737 c 0
 407 737 386 758 386 783 c 0
 386 808 407 829 432 829 c 0
354 698 m 0
 542 698 672 561 672 344 c 0
 672 127 542 -10 354 -10 c 0
 166 -10 36 127 36 344 c 0
 36 561 166 698 354 698 c 0
354 626 m 0
 233 626 128 534 128 344 c 0
 128 154 233 62 354 62 c 0
 475 62 580 154 580 344 c 0
 580 534 475 626 354 626 c 0
EndSplineSet
Validated: 1
Position2: "'cpsp' Capital Spacing in Latin lookup 0 subtable" dx=5 dy=0 dh=10 dv=0
EndChar

StartChar: Ograve
Encoding: 210 210 40
Width: 708
Flags: MW
HStem: -10 72<293.5 414.5 293.5 448> 626 72<293.5 414.5> 740 115
VStem: 36 92<249 439 249 452.5> 580 92<249 439>
LayerCount: 2
Fore
SplineSet
309 853 m 1
 392 738 l 1
 324 742 l 1
 218 857 l 1
 309 853 l 1
354 698 m 0
 542 698 672 561 672 344 c 0
 672 127 542 -10 354 -10 c 0
 166 -10 36 127 36 344 c 0
 36 561 166 698 354 698 c 0
354 626 m 0
 233 626 128 534 128 344 c 0
 128 154 233 62 354 62 c 0
 475 62 580 154 580 344 c 0
 580 534 475 626 354 626 c 0
EndSplineSet
Validated: 1
Position2: "'cpsp' Capital Spacing in Latin lookup 0 subtable" dx=5 dy=0 dh=10 dv=0
EndChar

StartChar: Oslash
Encoding: 216 216 41
Width: 708
Flags: MW
HStem: -10 72<324.5 414.5 324.5 448> 626 72<293.5 383>
VStem: 36 92<309.5 439 309.5 452.5> 580 92<249 379>
LayerCount: 2
Fore
SplineSet
661 648 m 1
 601 581 l 1
 646 521 672 440 672 344 c 0
 672 127 542 -10 354 -10 c 0
 271 -10 199 17 145 66 c 1
 89 3 l 1
 47 43 l 1
 105 109 l 1
 61 168 36 249 36 344 c 0
 36 561 166 698 354 698 c 0
 437 698 508 672 562 624 c 1
 619 688 l 1
 661 648 l 1
165 176 m 1
 507 562 l 1
 466 605 412 626 354 626 c 0
 233 626 128 534 128 344 c 0
 128 275 142 219 165 176 c 1
542 514 m 1
 199 128 l 1
 240 84 295 62 354 62 c 0
 475 62 580 154 580 344 c 0
 580 414 566 470 542 514 c 1
EndSplineSet
Validated: 1
Position2: "'cpsp' Capital Spacing in Latin lookup 0 subtable" dx=5 dy=0 dh=10 dv=0
EndChar

StartChar: Otilde
Encoding: 213 213 42
Width: 708
Flags: MW
HStem: -10 72<293.5 414.5 293.5 448> 626 72<293.5 414.5> 758 51<401.5 413 401.5 424> 781 51<295 306.5>
VStem: 36 92<249 439 249 452.5> 244 38<757 763.5 757 766 757 788> 426 38<826.5 833> 580 92<249 439>
LayerCount: 2
Fore
SplineSet
464 833 m 1xeb
 464 824 l 2
 464 780 441 758 407 758 c 0xeb
 388 758 368 764 346 770 c 0
 325 777 311 781 302 781 c 0
 288 781 282 770 282 757 c 1
 244 757 l 1
 244 766 l 2
 244 810 267 832 301 832 c 0xdf
 320 832 340 826 362 819 c 0
 383 813 397 809 406 809 c 0
 420 809 426 820 426 833 c 1
 464 833 l 1xeb
354 698 m 0
 542 698 672 561 672 344 c 0
 672 127 542 -10 354 -10 c 0
 166 -10 36 127 36 344 c 0
 36 561 166 698 354 698 c 0
354 626 m 0
 233 626 128 534 128 344 c 0
 128 154 233 62 354 62 c 0
 475 62 580 154 580 344 c 0
 580 534 475 626 354 626 c 0
EndSplineSet
Validated: 1
Position2: "'cpsp' Capital Spacing in Latin lookup 0 subtable" dx=5 dy=0 dh=10 dv=0
EndChar

StartChar: OE
Encoding: 338 338 43
Width: 989
Flags: MW
HStem: -10 72<293.5 403.5> 0 72<662 950 662 950> 311 72<662 914 662 914> 612 72<662 946 662 662> 626 72<293.5 403.5 260 414.5>
VStem: 36 92<249 439 249 452.5> 580 82<72 115 115 115 249 311 383 439 573 612>
LayerCount: 2
Fore
SplineSet
950 72 m 1x76
 950 0 l 1
 580 0 l 1x76
 580 115 l 1
 532 34 453 -10 354 -10 c 0
 166 -10 36 127 36 344 c 0
 36 561 166 698 354 698 c 0xae
 453 698 532 654 580 573 c 1
 580 684 l 1
 946 684 l 1
 946 612 l 1
 662 612 l 1
 662 383 l 1
 914 383 l 1
 914 311 l 1
 662 311 l 1
 662 72 l 1
 950 72 l 1x76
354 62 m 0xae
 475 62 580 154 580 344 c 0
 580 534 475 626 354 626 c 0
 233 626 128 534 128 344 c 0
 128 154 233 62 354 62 c 0xae
EndSplineSet
Validated: 1
Position2: "'cpsp' Capital Spacing in Latin lookup 0 subtable" dx=5 dy=0 dh=10 dv=0
EndChar

StartChar: P
Encoding: 80 80 44
Width: 492
Flags: MW
HStem: 277 70<200 257.5 200 276> 626 72<217 279>
VStem: 76 82<0 280 0 350 350 621> 387 89<441 529>
LayerCount: 2
Fore
SplineSet
76 0 m 1
 76 683 l 1
 134 694 182 698 226 698 c 0
 391 698 476 610 476 497 c 0
 476 349 349 277 203 277 c 0
 187 277 175 278 158 280 c 1
 158 0 l 1
 76 0 l 1
158 621 m 1
 158 350 l 1
 173 348 194 347 206 347 c 0
 309 347 387 395 387 487 c 0
 387 571 330 626 228 626 c 0
 206 626 190 625 158 621 c 1
EndSplineSet
Validated: 1
Position2: "'cpsp' Capital Spacing in Latin lookup 0 subtable" dx=5 dy=0 dh=10 dv=0
EndChar

StartChar: Q
Encoding: 81 81 45
Width: 708
Flags: MW
HStem: -10 71<292.5 354> 626 72<293.5 414.5>
VStem: 36 92<249 439 249 452.5> 580 92<255.5 439>
LayerCount: 2
Fore
SplineSet
508 -204 m 1
 354 -10 l 1
 166 -10 36 127 36 344 c 0
 36 561 166 698 354 698 c 0
 542 698 672 561 672 344 c 0
 672 167 578 43 440 6 c 1
 576 -157 l 1
 508 -204 l 1
353 61 m 0
 474 61 580 154 580 344 c 0
 580 534 475 626 354 626 c 0
 233 626 128 534 128 344 c 0
 128 154 232 61 353 61 c 0
EndSplineSet
Validated: 1
Position2: "'cpsp' Capital Spacing in Latin lookup 0 subtable" dx=5 dy=0 dh=10 dv=0
EndChar

StartChar: R
Encoding: 82 82 46
Width: 523
Flags: MW
HStem: 287 67<158 193 193 205 158 193> 626 72<217 279>
VStem: 76 82<0 287 354 621> 384 89<459 537>
LayerCount: 2
Fore
SplineSet
76 0 m 1
 76 686 l 1
 134 694 182 698 226 698 c 0
 391 698 473 620 473 504 c 0
 473 414 401 352 319 335 c 1
 392 320 418 267 434 189 c 0
 447 128 471 45 487 0 c 1
 392 0 l 1
 377 54 360 131 350 181 c 0
 336 254 293 287 205 287 c 2
 158 287 l 1
 158 0 l 1
 76 0 l 1
158 354 m 1
 193 354 l 2
 301 354 384 406 384 496 c 0
 384 578 330 626 228 626 c 0
 206 626 190 625 158 621 c 1
 158 354 l 1
EndSplineSet
Validated: 1
Position2: "'cpsp' Capital Spacing in Latin lookup 0 subtable" dx=5 dy=0 dh=10 dv=0
EndChar

StartChar: S
Encoding: 83 83 47
Width: 496
Flags: MW
HStem: -10 72<195.5 259.5 195.5 283> 626 72<255.5 317>
VStem: 73 87<481.5 546.5 481.5 560.5> 356 90<144 205.5>
LayerCount: 2
Fore
SplineSet
46 31 m 1
 56 109 l 1
 106 76 172 62 219 62 c 0
 300 62 356 112 356 176 c 0
 356 235 321 273 241 304 c 0
 142 342 73 397 73 499 c 0
 73 622 165 698 298 698 c 0
 346 698 406 682 435 663 c 1
 425 585 l 1
 395 607 343 626 291 626 c 0
 220 626 160 579 160 514 c 0
 160 449 200 408 281 378 c 0
 394 336 446 280 446 189 c 0
 446 75 354 -10 212 -10 c 0
 155 -10 94 3 46 31 c 1
EndSplineSet
Validated: 1
Position2: "'cpsp' Capital Spacing in Latin lookup 0 subtable" dx=5 dy=0 dh=10 dv=0
EndChar

StartChar: Scedilla
Encoding: 350 350 48
Width: 496
Flags: MW
HStem: -168 38<207 231 207 243.5> -10 72<195.5 212 212 213> 626 72<255.5 317>
VStem: 73 87<481.5 546.5> 260 58<-106 -84> 356 90<144 205.5>
LayerCount: 2
Fore
SplineSet
435 663 m 1
 425 585 l 1
 395 607 343 626 291 626 c 0
 220 626 160 579 160 514 c 0
 160 449 200 408 281 378 c 0
 394 336 446 280 446 189 c 0
 446 88 374 10 260 -7 c 1
 249 -26 l 1
 292 -33 318 -55 318 -93 c 0
 318 -143 278 -168 209 -168 c 0
 192 -168 171 -164 155 -155 c 1
 160 -116 l 1
 176 -125 196 -130 218 -130 c 0
 244 -130 260 -116 260 -96 c 0
 260 -72 243 -58 187 -58 c 1
 213 -10 l 1
 212 -10 l 2
 155 -10 94 3 46 31 c 1
 56 109 l 1
 106 76 172 62 219 62 c 0
 300 62 356 112 356 176 c 0
 356 235 321 273 241 304 c 0
 142 342 73 397 73 499 c 0
 73 622 165 698 298 698 c 0
 346 698 406 682 435 663 c 1
EndSplineSet
Validated: 1
EndChar

StartChar: T
Encoding: 84 84 49
Width: 497
Flags: MW
HStem: 612 72<1 209 1 499 291 499 291 291>
VStem: 209 82<0 612 0 612>
LayerCount: 2
Fore
SplineSet
499 612 m 1
 291 612 l 1
 291 0 l 1
 209 0 l 1
 209 612 l 1
 1 612 l 1
 1 684 l 1
 499 684 l 1
 499 612 l 1
EndSplineSet
Validated: 1
Position2: "'cpsp' Capital Spacing in Latin lookup 0 subtable" dx=5 dy=0 dh=10 dv=0
EndChar

StartChar: U
Encoding: 85 85 50
Width: 637
Flags: MW
HStem: -14 74<274 373 274 393>
VStem: 69 82<229 241 241 688> 492 82<231 239 239 688>
LayerCount: 2
Fore
SplineSet
574 688 m 1
 574 239 l 2
 574 81 470 -14 316 -14 c 0
 164 -14 69 87 69 229 c 2
 69 688 l 1
 151 688 l 1
 151 241 l 2
 151 127 224 60 324 60 c 0
 422 60 492 125 492 231 c 2
 492 688 l 1
 574 688 l 1
EndSplineSet
Validated: 1
Position2: "'cpsp' Capital Spacing in Latin lookup 0 subtable" dx=5 dy=0 dh=10 dv=0
EndChar

StartChar: Uacute
Encoding: 218 218 51
Width: 637
Flags: MW
HStem: -14 74<274 373 274 393> 740 115
VStem: 69 82<229 241 241 688> 492 82<231 239 239 688>
LayerCount: 2
Fore
SplineSet
350 742 m 1
 282 738 l 1
 365 853 l 1
 456 857 l 1
 350 742 l 1
574 688 m 1
 574 239 l 2
 574 81 470 -14 316 -14 c 0
 164 -14 69 87 69 229 c 2
 69 688 l 1
 151 688 l 1
 151 241 l 2
 151 127 224 60 324 60 c 0
 422 60 492 125 492 231 c 2
 492 688 l 1
 574 688 l 1
EndSplineSet
Validated: 1
Position2: "'cpsp' Capital Spacing in Latin lookup 0 subtable" dx=5 dy=0 dh=10 dv=0
EndChar

StartChar: Ucircumflex
Encoding: 219 219 52
Width: 637
Flags: MW
HStem: -14 74<274 373 274 393> 741 116<205 351 205 351 292 438 292 374>
VStem: 69 82<229 241 241 688> 492 82<231 239 239 688>
LayerCount: 2
Fore
SplineSet
438 741 m 5
 374 741 l 5
 321 816 l 5
 268 741 l 5
 205 741 l 5
 292 857 l 5
 351 857 l 5
 438 741 l 5
574 688 m 1
 574 239 l 2
 574 81 470 -14 316 -14 c 0
 164 -14 69 87 69 229 c 2
 69 688 l 1
 151 688 l 1
 151 241 l 2
 151 127 224 60 324 60 c 0
 422 60 492 125 492 231 c 2
 492 688 l 1
 574 688 l 1
EndSplineSet
Validated: 1
Position2: "'cpsp' Capital Spacing in Latin lookup 0 subtable" dx=5 dy=0 dh=10 dv=0
EndChar

StartChar: Udieresis
Encoding: 220 220 53
Width: 637
Flags: MW
HStem: -14 74<274 373 274 393> 737 92<230.5 255.5 386.5 411.5>
VStem: 69 82<229 241 241 688> 197 92<770.5 795.5> 353 92<770.5 795.5> 492 82<231 239 239 688>
LayerCount: 2
Fore
SplineSet
243 829 m 0
 268 829 289 808 289 783 c 0
 289 758 268 737 243 737 c 0
 218 737 197 758 197 783 c 0
 197 808 218 829 243 829 c 0
399 829 m 0
 424 829 445 808 445 783 c 0
 445 758 424 737 399 737 c 0
 374 737 353 758 353 783 c 0
 353 808 374 829 399 829 c 0
574 688 m 1
 574 239 l 2
 574 81 470 -14 316 -14 c 0
 164 -14 69 87 69 229 c 2
 69 688 l 1
 151 688 l 1
 151 241 l 2
 151 127 224 60 324 60 c 0
 422 60 492 125 492 231 c 2
 492 688 l 1
 574 688 l 1
EndSplineSet
Validated: 1
Position2: "'cpsp' Capital Spacing in Latin lookup 0 subtable" dx=5 dy=0 dh=10 dv=0
EndChar

StartChar: Ugrave
Encoding: 217 217 54
Width: 637
Flags: MW
HStem: -14 74<274 373 274 393> 740 115
VStem: 69 82<229 241 241 688> 492 82<231 239 239 688>
LayerCount: 2
Fore
SplineSet
276 853 m 1
 359 738 l 1
 291 742 l 1
 185 857 l 1
 276 853 l 1
574 688 m 1
 574 239 l 2
 574 81 470 -14 316 -14 c 0
 164 -14 69 87 69 229 c 2
 69 688 l 1
 151 688 l 1
 151 241 l 2
 151 127 224 60 324 60 c 0
 422 60 492 125 492 231 c 2
 492 688 l 1
 574 688 l 1
EndSplineSet
Validated: 1
Position2: "'cpsp' Capital Spacing in Latin lookup 0 subtable" dx=5 dy=0 dh=10 dv=0
EndChar

StartChar: V
Encoding: 86 86 55
Width: 584
Flags: MW
HStem: 0 77<298 298 298 349 243 298>
VStem: 10 572<688 688>
LayerCount: 2
Fore
SplineSet
349 0 m 1
 243 0 l 1
 10 688 l 1
 100 688 l 1
 298 77 l 1
 495 688 l 1
 582 688 l 1
 349 0 l 1
EndSplineSet
Validated: 1
Position2: "'cpsp' Capital Spacing in Latin lookup 0 subtable" dx=5 dy=0 dh=10 dv=0
EndChar

StartChar: W
Encoding: 87 87 56
Width: 859
Flags: MW
HStem: 0 77
VStem: 10 847<688 688>
LayerCount: 2
Fore
SplineSet
104 688 m 1
 210 258 l 2
 226 191 237 138 248 78 c 1
 257 138 270 198 284 258 c 2
 388 684 l 1
 483 684 l 1
 587 258 l 2
 602 198 613 138 621 77 c 1
 631 138 645 198 660 258 c 2
 768 688 l 1
 857 688 l 1
 669 0 l 1
 565 0 l 1
 467 418 l 2
 453 478 441 538 432 598 c 1
 423 538 412 478 398 418 c 2
 300 0 l 1
 195 0 l 1
 10 688 l 1
 104 688 l 1
EndSplineSet
Validated: 1
Position2: "'cpsp' Capital Spacing in Latin lookup 0 subtable" dx=5 dy=0 dh=10 dv=0
EndChar

StartChar: Wacute
Encoding: 7810 7810 57
Width: 859
Flags: MW
HStem: 0 77 740 115
VStem: 10 847<688 688>
LayerCount: 2
Fore
SplineSet
464 742 m 1
 396 738 l 1
 479 853 l 1
 570 857 l 1
 464 742 l 1
104 688 m 1
 210 258 l 2
 226 191 237 138 248 78 c 1
 257 138 270 198 284 258 c 2
 388 684 l 1
 483 684 l 1
 587 258 l 2
 602 198 613 138 621 77 c 1
 631 138 645 198 660 258 c 2
 768 688 l 1
 857 688 l 1
 669 0 l 1
 565 0 l 1
 467 418 l 2
 453 478 441 538 432 598 c 1
 423 538 412 478 398 418 c 2
 300 0 l 1
 195 0 l 1
 10 688 l 1
 104 688 l 1
EndSplineSet
Validated: 1
Position2: "'cpsp' Capital Spacing in Latin lookup 0 subtable" dx=5 dy=0 dh=10 dv=0
EndChar

StartChar: Wcircumflex
Encoding: 372 372 58
Width: 859
Flags: MW
HStem: 0 77 741 116<319 465 319 465 406 552 406 488>
VStem: 10 847<688 688>
LayerCount: 2
Fore
SplineSet
552 741 m 1
 488 741 l 1
 435 816 l 1
 382 741 l 1
 319 741 l 1
 406 857 l 1
 465 857 l 1
 552 741 l 1
104 688 m 1
 210 258 l 2
 226 191 237 138 248 78 c 1
 257 138 270 198 284 258 c 2
 388 684 l 1
 483 684 l 1
 587 258 l 2
 602 198 613 138 621 77 c 1
 631 138 645 198 660 258 c 2
 768 688 l 1
 857 688 l 1
 669 0 l 1
 565 0 l 1
 467 418 l 2
 453 478 441 538 432 598 c 1
 423 538 412 478 398 418 c 2
 300 0 l 1
 195 0 l 1
 10 688 l 1
 104 688 l 1
EndSplineSet
Validated: 1
Position2: "'cpsp' Capital Spacing in Latin lookup 0 subtable" dx=5 dy=0 dh=10 dv=0
EndChar

StartChar: Wdieresis
Encoding: 7812 7812 59
Width: 859
Flags: MW
HStem: 0 77 737 92<344.5 369.5 500.5 525.5>
VStem: 311 92<770.5 795.5> 467 92<770.5 795.5>
LayerCount: 2
Fore
SplineSet
357 829 m 0
 382 829 403 808 403 783 c 0
 403 758 382 737 357 737 c 0
 332 737 311 758 311 783 c 0
 311 808 332 829 357 829 c 0
513 829 m 0
 538 829 559 808 559 783 c 0
 559 758 538 737 513 737 c 0
 488 737 467 758 467 783 c 0
 467 808 488 829 513 829 c 0
104 688 m 1
 210 258 l 2
 226 191 237 138 248 78 c 1
 257 138 270 198 284 258 c 2
 388 684 l 1
 483 684 l 1
 587 258 l 2
 602 198 613 138 621 77 c 1
 631 138 645 198 660 258 c 2
 768 688 l 1
 857 688 l 1
 669 0 l 1
 565 0 l 1
 467 418 l 2
 453 478 441 538 432 598 c 1
 423 538 412 478 398 418 c 2
 300 0 l 1
 195 0 l 1
 10 688 l 1
 104 688 l 1
EndSplineSet
Validated: 1
Position2: "'cpsp' Capital Spacing in Latin lookup 0 subtable" dx=5 dy=0 dh=10 dv=0
EndChar

StartChar: Wgrave
Encoding: 7808 7808 60
Width: 859
Flags: MW
HStem: 0 77 740 115
VStem: 10 847<688 688>
LayerCount: 2
Fore
SplineSet
390 853 m 1
 473 738 l 1
 405 742 l 1
 299 857 l 1
 390 853 l 1
104 688 m 1
 210 258 l 2
 226 191 237 138 248 78 c 1
 257 138 270 198 284 258 c 2
 388 684 l 1
 483 684 l 1
 587 258 l 2
 602 198 613 138 621 77 c 1
 631 138 645 198 660 258 c 2
 768 688 l 1
 857 688 l 1
 669 0 l 1
 565 0 l 1
 467 418 l 2
 453 478 441 538 432 598 c 1
 423 538 412 478 398 418 c 2
 300 0 l 1
 195 0 l 1
 10 688 l 1
 104 688 l 1
EndSplineSet
Validated: 1
Position2: "'cpsp' Capital Spacing in Latin lookup 0 subtable" dx=5 dy=0 dh=10 dv=0
EndChar

StartChar: X
Encoding: 88 88 61
Width: 531
Flags: MW
HStem: 0 688<22 108 15 122 436 527 22 425>
VStem: 15 514
LayerCount: 2
Fore
SplineSet
319 345 m 1
 527 0 l 1
 425 0 l 1
 267 280 l 1
 108 0 l 1
 15 0 l 1
 220 342 l 1
 22 688 l 1
 122 688 l 1
 272 405 l 1
 436 688 l 1
 529 688 l 1
 319 345 l 1
EndSplineSet
Validated: 1
Position2: "'cpsp' Capital Spacing in Latin lookup 0 subtable" dx=5 dy=0 dh=10 dv=0
EndChar

StartChar: Y
Encoding: 89 89 62
Width: 530
Flags: MW
HStem: 0 688<8 317 8 235>
VStem: 235 82<0 296 0 296>
LayerCount: 2
Fore
SplineSet
317 296 m 1
 317 0 l 1
 235 0 l 1
 235 296 l 1
 8 688 l 1
 109 688 l 1
 279 367 l 1
 451 688 l 1
 544 688 l 1
 317 296 l 1
EndSplineSet
Validated: 1
Position2: "'cpsp' Capital Spacing in Latin lookup 0 subtable" dx=5 dy=0 dh=10 dv=0
EndChar

StartChar: Yacute
Encoding: 221 221 63
Width: 530
Flags: MW
HStem: 740 115
VStem: 235 82<0 296>
LayerCount: 2
Fore
SplineSet
305 742 m 1
 237 738 l 1
 320 853 l 1
 411 857 l 1
 305 742 l 1
317 0 m 1
 235 0 l 1
 235 296 l 1
 8 688 l 1
 109 688 l 1
 279 367 l 1
 451 688 l 1
 544 688 l 1
 317 296 l 1
 317 0 l 1
EndSplineSet
Validated: 1
Position2: "'cpsp' Capital Spacing in Latin lookup 0 subtable" dx=5 dy=0 dh=10 dv=0
EndChar

StartChar: Ycircumflex
Encoding: 374 374 64
Width: 530
Flags: MW
HStem: 741 116<160 306 160 306 247 393 247 329>
VStem: 235 82<0 296>
LayerCount: 2
Fore
SplineSet
393 741 m 1
 329 741 l 1
 276 816 l 1
 223 741 l 1
 160 741 l 1
 247 857 l 1
 306 857 l 1
 393 741 l 1
317 0 m 1
 235 0 l 1
 235 296 l 1
 8 688 l 1
 109 688 l 1
 279 367 l 1
 451 688 l 1
 544 688 l 1
 317 296 l 1
 317 0 l 1
EndSplineSet
Validated: 1
Position2: "'cpsp' Capital Spacing in Latin lookup 0 subtable" dx=5 dy=0 dh=10 dv=0
EndChar

StartChar: Ydieresis
Encoding: 376 376 65
Width: 530
Flags: MW
HStem: 737 92<185.5 210.5 341.5 366.5>
VStem: 152 92<770.5 795.5> 235 82<0 296> 308 92<770.5 795.5>
LayerCount: 2
Fore
SplineSet
198 829 m 0xd0
 223 829 244 808 244 783 c 0
 244 758 223 737 198 737 c 0
 173 737 152 758 152 783 c 0
 152 808 173 829 198 829 c 0xd0
354 829 m 0
 379 829 400 808 400 783 c 0
 400 758 379 737 354 737 c 0
 329 737 308 758 308 783 c 0
 308 808 329 829 354 829 c 0
317 0 m 1xa0
 235 0 l 1
 235 296 l 1
 8 688 l 1
 109 688 l 1
 279 367 l 1
 451 688 l 1
 544 688 l 1
 317 296 l 1
 317 0 l 1xa0
EndSplineSet
Validated: 1
Position2: "'cpsp' Capital Spacing in Latin lookup 0 subtable" dx=5 dy=0 dh=10 dv=0
EndChar

StartChar: Ygrave
Encoding: 7922 7922 66
Width: 530
Flags: MW
HStem: 740 115
VStem: 235 82<0 296>
LayerCount: 2
Fore
SplineSet
231 853 m 1
 314 738 l 1
 246 742 l 1
 140 857 l 1
 231 853 l 1
317 0 m 1
 235 0 l 1
 235 296 l 1
 8 688 l 1
 109 688 l 1
 279 367 l 1
 451 688 l 1
 544 688 l 1
 317 296 l 1
 317 0 l 1
EndSplineSet
Validated: 1
Position2: "'cpsp' Capital Spacing in Latin lookup 0 subtable" dx=5 dy=0 dh=10 dv=0
EndChar

StartChar: Z
Encoding: 90 90 67
Width: 532
Flags: MW
HStem: 0 72<139 508 139 508> 612 72<65 400 65 503>
VStem: 36 472<0 65 65 65>
LayerCount: 2
Fore
SplineSet
503 616 m 1
 139 72 l 1
 508 72 l 1
 508 0 l 1
 36 0 l 1
 36 65 l 1
 400 612 l 1
 65 612 l 1
 65 684 l 1
 503 684 l 1
 503 616 l 1
EndSplineSet
Validated: 1
Position2: "'cpsp' Capital Spacing in Latin lookup 0 subtable" dx=5 dy=0 dh=10 dv=0
EndChar

StartChar: a
Encoding: 97 97 68
Width: 471
Flags: MW
HStem: -10 64<190 218.5> 232 61<225.5 267.5 198.5 274.5> 420 68<208 250>
VStem: 47 88<109.5 163 109.5 183.5> 323 82<185 226 226 226 287 317 0 324 0 356>
LayerCount: 2
Fore
SplineSet
92 384 m 1
 87 452 l 1
 126 474 181 488 235 488 c 0
 356 488 405 423 405 317 c 2
 405 0 l 1
 333 0 l 1
 324 71 l 1
 296 19 250 -10 187 -10 c 0
 115 -10 47 36 47 129 c 0
 47 238 141 293 256 293 c 0
 279 293 305 291 323 287 c 1
 323 324 l 2
 323 388 285 420 215 420 c 0
 179 420 132 408 92 384 c 1
323 185 m 2
 323 226 l 1
 307 230 285 232 264 232 c 0
 187 232 135 192 135 134 c 0
 135 85 167 54 213 54 c 0
 270 54 323 106 323 185 c 2
EndSplineSet
Validated: 1
EndChar

StartChar: aacute
Encoding: 225 225 69
Width: 471
Flags: MW
HStem: -10 64<190 218.5> 232 61<225.5 267.5 198.5 274.5> 420 68<208 250> 538 115
VStem: 47 88<109.5 163 109.5 183.5> 323 82<185 226 226 226 287 317 0 324 0 356>
LayerCount: 2
Fore
SplineSet
274 540 m 1
 206 536 l 1
 289 651 l 1
 380 655 l 1
 274 540 l 1
92 384 m 1
 87 452 l 1
 126 474 181 488 235 488 c 0
 356 488 405 423 405 317 c 2
 405 0 l 1
 333 0 l 1
 324 71 l 1
 296 19 250 -10 187 -10 c 0
 115 -10 47 36 47 129 c 0
 47 238 141 293 256 293 c 0
 279 293 305 291 323 287 c 1
 323 324 l 2
 323 388 285 420 215 420 c 0
 179 420 132 408 92 384 c 1
323 185 m 2
 323 226 l 1
 307 230 285 232 264 232 c 0
 187 232 135 192 135 134 c 0
 135 85 167 54 213 54 c 0
 270 54 323 106 323 185 c 2
EndSplineSet
Validated: 1
EndChar

StartChar: abreve
Encoding: 259 259 70
Width: 471
Flags: MW
HStem: -10 64<190 218.5> 232 61<225.5 267.5 198.5 274.5> 420 68<208 250> 537 47<228 262 228 282>
VStem: 47 88<109.5 163 109.5 183.5> 140 45<622.5 653> 305 45<622.5 653> 323 82<185 226 226 226 287 317 0 324 0 356>
LayerCount: 2
Fore
SplineSet
140 653 m 1xf6
 185 653 l 1
 189 609 211 584 245 584 c 0
 279 584 301 609 305 653 c 1
 350 653 l 1
 350 592 319 537 245 537 c 0
 170 537 140 592 140 653 c 1xf6
92 384 m 1
 87 452 l 1
 126 474 181 488 235 488 c 0
 356 488 405 423 405 317 c 2
 405 0 l 1
 333 0 l 1
 324 71 l 1
 296 19 250 -10 187 -10 c 0
 115 -10 47 36 47 129 c 0
 47 238 141 293 256 293 c 0
 279 293 305 291 323 287 c 1
 323 324 l 2xf9
 323 388 285 420 215 420 c 0
 179 420 132 408 92 384 c 1
323 185 m 2
 323 226 l 1
 307 230 285 232 264 232 c 0
 187 232 135 192 135 134 c 0
 135 85 167 54 213 54 c 0
 270 54 323 106 323 185 c 2
EndSplineSet
Validated: 1
EndChar

StartChar: acircumflex
Encoding: 226 226 71
Width: 471
Flags: MW
HStem: -10 64<190 218.5> 232 61<225.5 267.5 198.5 274.5> 420 68<208 250> 539 116<128 274 128 274 215 361 215 297>
VStem: 47 88<109.5 163 109.5 183.5> 323 82<185 226 226 226 287 317 0 324 0 356>
LayerCount: 2
Fore
SplineSet
361 539 m 1
 297 539 l 1
 244 614 l 1
 191 539 l 1
 128 539 l 1
 215 655 l 1
 274 655 l 1
 361 539 l 1
92 384 m 1
 87 452 l 1
 126 474 181 488 235 488 c 0
 356 488 405 423 405 317 c 2
 405 0 l 1
 333 0 l 1
 324 71 l 1
 296 19 250 -10 187 -10 c 0
 115 -10 47 36 47 129 c 0
 47 238 141 293 256 293 c 0
 279 293 305 291 323 287 c 1
 323 324 l 2
 323 388 285 420 215 420 c 0
 179 420 132 408 92 384 c 1
323 185 m 2
 323 226 l 1
 307 230 285 232 264 232 c 0
 187 232 135 192 135 134 c 0
 135 85 167 54 213 54 c 0
 270 54 323 106 323 185 c 2
EndSplineSet
Validated: 1
EndChar

StartChar: adieresis
Encoding: 228 228 72
Width: 471
Flags: MW
HStem: -10 64<190 218.5> 232 61<225.5 267.5 198.5 274.5> 420 68<208 250> 535 92<154.5 179.5 310.5 335.5>
VStem: 47 88<109.5 163 109.5 183.5> 121 92<568.5 593.5> 277 92<568.5 593.5> 323 82<185 226 226 226 287 317 0 324 0 356>
LayerCount: 2
Fore
SplineSet
167 627 m 0xf6
 192 627 213 606 213 581 c 0
 213 556 192 535 167 535 c 0
 142 535 121 556 121 581 c 0
 121 606 142 627 167 627 c 0xf6
323 627 m 0
 348 627 369 606 369 581 c 0
 369 556 348 535 323 535 c 0
 298 535 277 556 277 581 c 0
 277 606 298 627 323 627 c 0
92 384 m 1
 87 452 l 1
 126 474 181 488 235 488 c 0
 356 488 405 423 405 317 c 2
 405 0 l 1
 333 0 l 1
 324 71 l 1
 296 19 250 -10 187 -10 c 0
 115 -10 47 36 47 129 c 0
 47 238 141 293 256 293 c 0
 279 293 305 291 323 287 c 1
 323 324 l 2xf9
 323 388 285 420 215 420 c 0
 179 420 132 408 92 384 c 1
323 185 m 2
 323 226 l 1
 307 230 285 232 264 232 c 0
 187 232 135 192 135 134 c 0
 135 85 167 54 213 54 c 0
 270 54 323 106 323 185 c 2
EndSplineSet
Validated: 1
EndChar

StartChar: agrave
Encoding: 224 224 73
Width: 471
Flags: MW
HStem: -10 64<190 218.5> 232 61<225.5 267.5 198.5 274.5> 420 68<208 250> 538 115
VStem: 47 88<109.5 163 109.5 183.5> 323 82<185 226 226 226 287 317 0 324 0 356>
LayerCount: 2
Fore
SplineSet
200 651 m 1
 283 536 l 1
 215 540 l 1
 109 655 l 1
 200 651 l 1
92 384 m 1
 87 452 l 1
 126 474 181 488 235 488 c 0
 356 488 405 423 405 317 c 2
 405 0 l 1
 333 0 l 1
 324 71 l 1
 296 19 250 -10 187 -10 c 0
 115 -10 47 36 47 129 c 0
 47 238 141 293 256 293 c 0
 279 293 305 291 323 287 c 1
 323 324 l 2
 323 388 285 420 215 420 c 0
 179 420 132 408 92 384 c 1
323 185 m 2
 323 226 l 1
 307 230 285 232 264 232 c 0
 187 232 135 192 135 134 c 0
 135 85 167 54 213 54 c 0
 270 54 323 106 323 185 c 2
EndSplineSet
Validated: 1
EndChar

StartChar: aring
Encoding: 229 229 74
Width: 471
Flags: MW
HStem: -10 64<190 218.5> 232 61<225.5 267.5 198.5 274.5> 420 68<208 250> 529 31<235.5 254.5 235.5 267.5> 644 31<235.5 254.5>
VStem: 47 88<109.5 163 109.5 183.5> 167 44<588 615.5 588 624.5> 279 44<588 615.5> 323 82<185 226 226 226 287 317 0 324 0 356>
LayerCount: 2
Fore
SplineSet
245 675 m 0xff
 290 675 323 647 323 602 c 0
 323 557 290 529 245 529 c 0
 200 529 167 557 167 602 c 0
 167 647 200 675 245 675 c 0xff
245 644 m 0
 226 644 211 629 211 602 c 0
 211 574 226 560 245 560 c 0
 264 560 279 574 279 602 c 0
 279 629 264 644 245 644 c 0
92 384 m 1
 87 452 l 1
 126 474 181 488 235 488 c 0
 356 488 405 423 405 317 c 2
 405 0 l 1
 333 0 l 1
 324 71 l 1
 296 19 250 -10 187 -10 c 0
 115 -10 47 36 47 129 c 0
 47 238 141 293 256 293 c 0
 279 293 305 291 323 287 c 1
 323 324 l 2xfe80
 323 388 285 420 215 420 c 0
 179 420 132 408 92 384 c 1
323 185 m 2
 323 226 l 1
 307 230 285 232 264 232 c 0
 187 232 135 192 135 134 c 0
 135 85 167 54 213 54 c 0
 270 54 323 106 323 185 c 2
EndSplineSet
Validated: 1
EndChar

StartChar: atilde
Encoding: 227 227 75
Width: 471
Flags: MW
HStem: -10 64<190 218.5> 232 61<225.5 267.5 198.5 274.5> 420 68<208 250> 556 51<292.5 304 292.5 315> 579 51<186 197.5>
VStem: 47 88<109.5 163 109.5 183.5> 135 38<555 561.5 555 564 555 586> 317 38<624.5 631> 323 82<185 226 226 226 287 317 0 324 0 356>
LayerCount: 2
Fore
SplineSet
355 631 m 1xf5
 355 622 l 2
 355 578 332 556 298 556 c 0xf5
 279 556 259 562 237 568 c 0
 216 575 202 579 193 579 c 0
 179 579 173 568 173 555 c 1
 135 555 l 1
 135 564 l 2
 135 608 158 630 192 630 c 0xea80
 211 630 231 624 253 617 c 0
 274 611 288 607 297 607 c 0
 311 607 317 618 317 631 c 1
 355 631 l 1xf5
92 384 m 1
 87 452 l 1
 126 474 181 488 235 488 c 0
 356 488 405 423 405 317 c 2
 405 0 l 1
 333 0 l 1
 324 71 l 1
 296 19 250 -10 187 -10 c 0
 115 -10 47 36 47 129 c 0
 47 238 141 293 256 293 c 0
 279 293 305 291 323 287 c 1
 323 324 l 2xf480
 323 388 285 420 215 420 c 0
 179 420 132 408 92 384 c 1
323 185 m 2
 323 226 l 1
 307 230 285 232 264 232 c 0
 187 232 135 192 135 134 c 0
 135 85 167 54 213 54 c 0
 270 54 323 106 323 185 c 2
EndSplineSet
Validated: 1
EndChar

StartChar: ae
Encoding: 230 230 76
Width: 753
Flags: MW
HStem: -10 66<514 568> 212 66<419 627 419 706 417 627> 221 61<228.5 267.5 201.5 274.5> 418 70<504 564.5>
VStem: 47 88<112.5 166 112.5 181.5> 331 88<195 278 216 278 278 278 278 324 278 356> 627 83<278 317>
LayerCount: 2
Fore
SplineSet
92 383 m 1xde
 87 452 l 1
 126 474 180 488 234 488 c 0
 313 488 361 460 385 412 c 1
 420 460 471 488 537 488 c 0
 661 488 710 383 710 253 c 0
 710 238 709 228 706 212 c 1
 417 212 l 1xde
 422 104 468 56 560 56 c 0
 600 56 645 70 679 91 c 1
 683 23 l 1
 647 3 596 -10 540 -10 c 0
 452 -10 388 25 356 98 c 1
 330 26 260 -10 195 -10 c 0
 117 -10 47 34 47 127 c 0
 47 236 147 282 256 282 c 0
 279 282 312 280 331 277 c 1xbe
 331 324 l 2
 331 388 284 420 214 420 c 0
 178 420 132 407 92 383 c 1xde
419 278 m 1
 627 278 l 1
 627 356 601 418 528 418 c 0
 462 418 426 362 419 278 c 1
331 195 m 2
 331 216 l 1
 313 219 285 221 264 221 c 0xbe
 193 221 135 195 135 137 c 0
 135 88 167 54 213 54 c 0
 260 54 331 92 331 195 c 2
EndSplineSet
Validated: 1
EndChar

StartChar: b
Encoding: 98 98 77
Width: 543
Flags: MW
HStem: -10 69<253 318.5 244 350.5> 417 71<266.5 326>
VStem: 70 82<173 218 218 270 395 735> 415 90<185 289>
LayerCount: 2
Fore
SplineSet
152 735 m 1
 152 395 l 1
 181 451 233 488 300 488 c 0
 422 488 505 390 505 245 c 0
 505 95 414 -10 287 -10 c 0
 219 -10 165 30 149 81 c 1
 144 0 l 1
 70 0 l 1
 70 735 l 1
 152 735 l 1
152 270 m 2
 152 218 l 2
 152 128 208 59 280 59 c 0
 357 59 415 129 415 241 c 0
 415 337 369 417 283 417 c 0
 217 417 152 353 152 270 c 2
EndSplineSet
Validated: 1
EndChar

StartChar: c
Encoding: 99 99 78
Width: 430
Flags: MW
HStem: -10 66<237.5 294.5> 420 68<242.5 308>
VStem: 38 90<179.5 300.5 179.5 316.5>
LayerCount: 2
Fore
SplineSet
389 80 m 1
 396 13 l 1
 363 0 319 -10 270 -10 c 0
 140 -10 38 67 38 233 c 0
 38 400 155 488 284 488 c 0
 332 488 374 479 401 466 c 1
 394 394 l 1
 365 410 329 420 287 420 c 0
 198 420 128 362 128 239 c 0
 128 120 187 56 288 56 c 0
 322 56 359 65 389 80 c 1
EndSplineSet
Validated: 1
EndChar

StartChar: ccedilla
Encoding: 231 231 79
Width: 430
Flags: MW
HStem: -168 38<215 239 215 251.5> -10 66<266 270 266 266> 420 68<242.5 308>
VStem: 38 90<179.5 300.5 179.5 316.5> 268 58<-106 -84>
LayerCount: 2
Fore
SplineSet
389 80 m 1
 396 13 l 1
 363 0 319 -10 270 -10 c 2
 266 -10 l 1
 257 -26 l 1
 300 -33 326 -55 326 -93 c 0
 326 -143 286 -168 217 -168 c 0
 200 -168 179 -164 163 -155 c 1
 168 -116 l 1
 184 -125 204 -130 226 -130 c 0
 252 -130 268 -116 268 -96 c 0
 268 -72 251 -58 195 -58 c 1
 223 -6 l 1
 116 10 38 88 38 233 c 0
 38 400 155 488 284 488 c 0
 332 488 374 479 401 466 c 1
 394 394 l 1
 365 410 329 420 287 420 c 0
 198 420 128 362 128 239 c 0
 128 120 187 56 288 56 c 0
 322 56 359 65 389 80 c 1
EndSplineSet
Validated: 1
EndChar

StartChar: d
Encoding: 100 100 80
Width: 543
Flags: MW
HStem: -10 71<217 277.5> 419 69<224.5 288.5 192.5 299>
VStem: 38 90<189 293 189 308> 391 82<208 260 260 305 404 735 0 735>
LayerCount: 2
Fore
SplineSet
473 735 m 5
 473 0 l 5
 399 0 l 5
 393 87 l 5
 364 29 312 -10 243 -10 c 4
 121 -10 38 88 38 233 c 4
 38 383 129 488 256 488 c 4
 321 488 373 452 391 404 c 5
 391 735 l 5
 473 735 l 5
391 208 m 6
 391 260 l 6
 391 350 335 419 263 419 c 4
 186 419 128 349 128 237 c 4
 128 141 174 61 260 61 c 4
 326 61 391 125 391 208 c 6
EndSplineSet
Validated: 1
EndChar

StartChar: e
Encoding: 101 101 81
Width: 470
Flags: MW
HStem: -10 66<227 283> 211 67<126 344 126 423 124 344> 418 70<210 279.5>
VStem: 38 86<211 211 211 306> 344 83<278 317>
LayerCount: 2
Fore
SplineSet
396 91 m 1
 400 23 l 1
 364 3 311 -10 255 -10 c 0
 123 -10 38 70 38 226 c 0
 38 386 123 488 252 488 c 0
 376 488 427 382 427 252 c 0
 427 237 426 227 423 211 c 1
 124 211 l 1
 129 103 179 56 275 56 c 0
 317 56 362 70 396 91 c 1
126 278 m 1
 344 278 l 1
 344 356 316 418 243 418 c 0
 177 418 133 362 126 278 c 1
EndSplineSet
Validated: 1
EndChar

StartChar: eacute
Encoding: 233 233 82
Width: 470
Flags: MW
HStem: -10 66<227 283> 211 67<126 344 126 423 124 344> 418 70<210 279.5> 538 115
VStem: 38 86<211 211 211 306> 344 83<278 317>
LayerCount: 2
Fore
SplineSet
270 540 m 1
 202 536 l 1
 285 651 l 1
 376 655 l 1
 270 540 l 1
396 91 m 1
 400 23 l 1
 364 3 311 -10 255 -10 c 0
 123 -10 38 70 38 226 c 0
 38 386 123 488 252 488 c 0
 376 488 427 382 427 252 c 0
 427 237 426 227 423 211 c 1
 124 211 l 1
 129 103 179 56 275 56 c 0
 317 56 362 70 396 91 c 1
126 278 m 1
 344 278 l 1
 344 356 316 418 243 418 c 0
 177 418 133 362 126 278 c 1
EndSplineSet
Validated: 1
EndChar

StartChar: ecircumflex
Encoding: 234 234 83
Width: 470
Flags: MW
HStem: -10 66<227 283> 211 67<126 344 126 423 124 344> 418 70<210 279.5> 539 116<124 270 124 270 211 357 211 293>
VStem: 38 86<211 211 211 306> 344 83<278 317>
LayerCount: 2
Fore
SplineSet
357 539 m 1
 293 539 l 1
 240 614 l 1
 187 539 l 1
 124 539 l 1
 211 655 l 1
 270 655 l 1
 357 539 l 1
396 91 m 1
 400 23 l 1
 364 3 311 -10 255 -10 c 0
 123 -10 38 70 38 226 c 0
 38 386 123 488 252 488 c 0
 376 488 427 382 427 252 c 0
 427 237 426 227 423 211 c 1
 124 211 l 1
 129 103 179 56 275 56 c 0
 317 56 362 70 396 91 c 1
126 278 m 1
 344 278 l 1
 344 356 316 418 243 418 c 0
 177 418 133 362 126 278 c 1
EndSplineSet
Validated: 1
EndChar

StartChar: edieresis
Encoding: 235 235 84
Width: 470
Flags: MW
HStem: -10 66<227 283> 211 67<126 344 126 423 124 344> 418 70<210 279.5> 535 92<150.5 175.5 306.5 331.5>
VStem: 38 86<211 211 211 306> 117 92<568.5 593.5> 273 92<568.5 593.5> 344 83<278 317>
LayerCount: 2
Fore
SplineSet
163 627 m 0xf6
 188 627 209 606 209 581 c 0
 209 556 188 535 163 535 c 0
 138 535 117 556 117 581 c 0
 117 606 138 627 163 627 c 0xf6
319 627 m 0
 344 627 365 606 365 581 c 0
 365 556 344 535 319 535 c 0
 294 535 273 556 273 581 c 0
 273 606 294 627 319 627 c 0
396 91 m 1
 400 23 l 1
 364 3 311 -10 255 -10 c 0
 123 -10 38 70 38 226 c 0
 38 386 123 488 252 488 c 0
 376 488 427 382 427 252 c 0
 427 237 426 227 423 211 c 1
 124 211 l 1xf9
 129 103 179 56 275 56 c 0
 317 56 362 70 396 91 c 1
126 278 m 1
 344 278 l 1
 344 356 316 418 243 418 c 0
 177 418 133 362 126 278 c 1
EndSplineSet
Validated: 1
EndChar

StartChar: egrave
Encoding: 232 232 85
Width: 470
Flags: MW
HStem: -10 66<227 283> 211 67<126 344 126 423 124 344> 418 70<210 279.5> 538 115
VStem: 38 86<211 211 211 306> 344 83<278 317>
LayerCount: 2
Fore
SplineSet
196 651 m 1
 279 536 l 1
 211 540 l 1
 105 655 l 1
 196 651 l 1
396 91 m 1
 400 23 l 1
 364 3 311 -10 255 -10 c 0
 123 -10 38 70 38 226 c 0
 38 386 123 488 252 488 c 0
 376 488 427 382 427 252 c 0
 427 237 426 227 423 211 c 1
 124 211 l 1
 129 103 179 56 275 56 c 0
 317 56 362 70 396 91 c 1
126 278 m 1
 344 278 l 1
 344 356 316 418 243 418 c 0
 177 418 133 362 126 278 c 1
EndSplineSet
Validated: 1
EndChar

StartChar: f
Encoding: 102 102 86
Width: 308
Flags: MW
HStem: 410 64<26 93 26 93 175 296> 677 68<258.5 300.5 227.5 302>
VStem: 93 82<0 410 0 410 474 519 519 530>
LayerCount: 2
Fore
SplineSet
93 474 m 1
 93 519 l 2
 93 666 168 745 287 745 c 0
 314 745 338 741 354 735 c 1
 349 667 l 1
 333 673 316 677 288 677 c 0
 229 677 175 632 175 530 c 2
 175 474 l 1
 296 474 l 1
 296 410 l 1
 175 410 l 1
 175 0 l 1
 93 0 l 1
 93 410 l 1
 26 410 l 1
 26 474 l 1
 93 474 l 1
EndSplineSet
Validated: 1
EndChar

StartChar: g
Encoding: 103 103 87
Width: 543
Flags: MW
HStem: -215 68<198 271.5 198 291.5> -10 71<217 276.5> 419 69<224.5 290 192.5 299>
VStem: 38 90<189 293 189 308> 391 82<40 47 47 83 83 83 208 260 260 305>
LayerCount: 2
Fore
SplineSet
473 478 m 1
 473 47 l 2
 473 -132 370 -215 213 -215 c 0
 168 -215 118 -204 76 -177 c 1
 81 -103 l 1
 123 -131 177 -147 219 -147 c 0
 324 -147 391 -88 391 40 c 2
 391 83 l 1
 362 27 310 -10 243 -10 c 0
 121 -10 38 88 38 233 c 0
 38 383 129 488 256 488 c 0
 324 488 378 448 394 397 c 1
 399 478 l 1
 473 478 l 1
391 208 m 2
 391 260 l 2
 391 350 335 419 263 419 c 0
 186 419 128 349 128 237 c 0
 128 141 174 61 260 61 c 0
 326 61 391 125 391 208 c 2
EndSplineSet
Validated: 1
EndChar

StartChar: gbreve
Encoding: 287 287 88
Width: 543
Flags: MW
HStem: -215 68<198 271.5 198 291.5> -10 71<217 276.5> 419 69<224.5 290 192.5 299> 537 47<247 281 247 301>
VStem: 38 90<189 293 189 308> 159 45<622.5 653> 324 45<622.5 653> 391 82<40 47 47 83 83 83 208 260 260 305>
LayerCount: 2
Fore
SplineSet
159 653 m 1
 204 653 l 1
 208 609 230 584 264 584 c 0
 298 584 320 609 324 653 c 1
 369 653 l 1xff
 369 592 338 537 264 537 c 0
 189 537 159 592 159 653 c 1
473 478 m 1xfd
 473 47 l 2
 473 -132 370 -215 213 -215 c 0
 168 -215 118 -204 76 -177 c 1
 81 -103 l 1
 123 -131 177 -147 219 -147 c 0
 324 -147 391 -88 391 40 c 2
 391 83 l 1
 362 27 310 -10 243 -10 c 0
 121 -10 38 88 38 233 c 0
 38 383 129 488 256 488 c 0
 324 488 378 448 394 397 c 1
 399 478 l 1
 473 478 l 1xfd
391 208 m 2
 391 260 l 2
 391 350 335 419 263 419 c 0
 186 419 128 349 128 237 c 0
 128 141 174 61 260 61 c 0
 326 61 391 125 391 208 c 2
EndSplineSet
Validated: 1
EndChar

StartChar: h
Encoding: 104 104 89
Width: 523
Flags: MW
HStem: 416 72<269.5 306.5>
VStem: 70 82<0 267 393 735> 375 82<0 295 295 319 0 329>
LayerCount: 2
Fore
SplineSet
152 735 m 1
 152 393 l 1
 180 459 241 488 298 488 c 0
 401 488 457 417 457 319 c 2
 457 0 l 1
 375 0 l 1
 375 295 l 2
 375 363 344 416 269 416 c 0
 205 416 152 350 152 267 c 2
 152 0 l 1
 70 0 l 1
 70 735 l 1
 152 735 l 1
EndSplineSet
Validated: 1
EndChar

StartChar: i
Encoding: 105 105 90
Width: 222
Flags: MW
HStem: 551 102<97 125>
VStem: 60 102<588 616> 70 82<0 478 0 478>
LayerCount: 2
Fore
SplineSet
111 653 m 0xc0
 139 653 162 630 162 602 c 0
 162 574 139 551 111 551 c 0
 83 551 60 574 60 602 c 0
 60 630 83 653 111 653 c 0xc0
70 0 m 1xa0
 70 478 l 1
 152 478 l 1
 152 0 l 1
 70 0 l 1xa0
EndSplineSet
Validated: 1
EndChar

StartChar: dotlessi
Encoding: 305 305 91
Width: 222
Flags: MW
HStem: 0 478<70 152 70 152>
VStem: 70 82<0 478>
LayerCount: 2
Fore
SplineSet
152 0 m 1
 70 0 l 1
 70 478 l 1
 152 478 l 1
 152 0 l 1
EndSplineSet
Validated: 1
EndChar

StartChar: iacute
Encoding: 237 237 92
Width: 222
Flags: MW
HStem: 538 115
VStem: 70 82<0 478 0 478>
LayerCount: 2
Fore
SplineSet
140 540 m 1
 72 536 l 1
 155 651 l 1
 246 655 l 1
 140 540 l 1
70 0 m 1
 70 478 l 1
 152 478 l 1
 152 0 l 1
 70 0 l 1
EndSplineSet
Validated: 1
EndChar

StartChar: icircumflex
Encoding: 238 238 93
Width: 222
Flags: MW
HStem: 539 116<-6 140 -6 140 81 227 81 163>
VStem: 70 82<0 478 0 478>
LayerCount: 2
Fore
SplineSet
227 539 m 1
 163 539 l 1
 110 614 l 1
 57 539 l 1
 -6 539 l 1
 81 655 l 1
 140 655 l 1
 227 539 l 1
70 0 m 1
 70 478 l 1
 152 478 l 1
 152 0 l 1
 70 0 l 1
EndSplineSet
Validated: 1
EndChar

StartChar: idieresis
Encoding: 239 239 94
Width: 222
Flags: MW
HStem: 535 92<20.5 45.5 176.5 201.5>
VStem: -13 92<568.5 593.5> 70 82<0 478 0 478> 143 92<568.5 593.5>
LayerCount: 2
Fore
SplineSet
33 627 m 0xd0
 58 627 79 606 79 581 c 0
 79 556 58 535 33 535 c 0
 8 535 -13 556 -13 581 c 0
 -13 606 8 627 33 627 c 0xd0
189 627 m 0
 214 627 235 606 235 581 c 0
 235 556 214 535 189 535 c 0
 164 535 143 556 143 581 c 0
 143 606 164 627 189 627 c 0
70 0 m 1xa0
 70 478 l 1
 152 478 l 1
 152 0 l 1
 70 0 l 1xa0
EndSplineSet
Validated: 1
EndChar

StartChar: igrave
Encoding: 236 236 95
Width: 222
Flags: MW
HStem: 538 115
VStem: 70 82<0 478 0 478>
LayerCount: 2
Fore
SplineSet
66 651 m 1
 149 536 l 1
 81 540 l 1
 -25 655 l 1
 66 651 l 1
70 0 m 1
 70 478 l 1
 152 478 l 1
 152 0 l 1
 70 0 l 1
EndSplineSet
Validated: 1
EndChar

StartChar: ij
Encoding: 307 307 96
Width: 460
Flags: MW
HStem: 551 102<97 125 335 363>
VStem: 60 102<588 616> 70 82<0 478 0 478> 298 102<588 616> 308 82<122 127 127 478>
LayerCount: 2
Fore
SplineSet
111 653 m 0xd0
 139 653 162 630 162 602 c 0
 162 574 139 551 111 551 c 0
 83 551 60 574 60 602 c 0
 60 630 83 653 111 653 c 0xd0
349 653 m 0
 377 653 400 630 400 602 c 0
 400 574 377 551 349 551 c 0
 321 551 298 574 298 602 c 0
 298 630 321 653 349 653 c 0
70 478 m 1xa8
 152 478 l 1
 152 0 l 1
 70 0 l 1
 70 478 l 1xa8
390 478 m 1
 390 127 l 2
 390 -65 317 -149 204 -213 c 1
 161 -150 l 1
 262 -91 308 -26 308 122 c 2
 308 478 l 1
 390 478 l 1
EndSplineSet
Validated: 1
EndChar

StartChar: j
Encoding: 106 106 97
Width: 238
Flags: MW
HStem: 551 102<113 141>
VStem: 76 102<588 616> 86 82<122 127 127 478>
LayerCount: 2
Fore
SplineSet
127 653 m 0xc0
 155 653 178 630 178 602 c 0
 178 574 155 551 127 551 c 0
 99 551 76 574 76 602 c 0
 76 630 99 653 127 653 c 0xc0
168 478 m 1xa0
 168 127 l 2
 168 -65 95 -149 -18 -213 c 1
 -61 -150 l 1
 40 -91 86 -26 86 122 c 2
 86 478 l 1
 168 478 l 1xa0
EndSplineSet
Validated: 1
EndChar

StartChar: k
Encoding: 107 107 98
Width: 453
Flags: MW
HStem: 0 735<70 152 70 152 70 450 70 338>
VStem: 70 82<0 181 0 258 258 735>
LayerCount: 2
Fore
SplineSet
450 0 m 1
 338 0 l 1
 180 210 l 1
 152 181 l 1
 152 0 l 1
 70 0 l 1
 70 735 l 1
 152 735 l 1
 152 258 l 1
 345 478 l 1
 447 478 l 1
 242 257 l 1
 450 0 l 1
EndSplineSet
Validated: 1
EndChar

StartChar: l
Encoding: 108 108 99
Width: 222
Flags: MW
HStem: 0 735<70 152 70 152>
VStem: 70 82<0 735>
LayerCount: 2
Fore
SplineSet
152 0 m 1
 70 0 l 1
 70 735 l 1
 152 735 l 1
 152 0 l 1
EndSplineSet
Validated: 1
EndChar

StartChar: m
Encoding: 109 109 100
Width: 788
Flags: MW
HStem: 416 72<259.5 295 543 580>
VStem: 70 82<0 267 0 478> 355 82<0 267 0 294 0 329.5> 640 82<0 294 294 318 0 329.5>
LayerCount: 2
Fore
SplineSet
144 478 m 1
 150 390 l 1
 175 457 230 488 289 488 c 0
 364 488 409 447 427 387 c 1
 461 456 512 488 574 488 c 0
 675 488 722 414 722 318 c 2
 722 0 l 1
 640 0 l 1
 640 294 l 2
 640 365 615 416 545 416 c 0
 484 416 437 350 437 267 c 2
 437 0 l 1
 355 0 l 1
 355 294 l 2
 355 365 330 416 260 416 c 0
 199 416 152 350 152 267 c 2
 152 0 l 1
 70 0 l 1
 70 478 l 1
 144 478 l 1
EndSplineSet
Validated: 1
EndChar

StartChar: n
Encoding: 110 110 101
Width: 523
Flags: MW
HStem: 416 72<269 306.5>
VStem: 70 82<0 267 0 478> 375 82<0 295 295 319 0 329>
LayerCount: 2
Fore
SplineSet
144 478 m 1
 150 388 l 1
 177 458 240 488 298 488 c 0
 401 488 457 417 457 319 c 2
 457 0 l 1
 375 0 l 1
 375 295 l 2
 375 363 344 416 269 416 c 0
 205 416 152 350 152 267 c 2
 152 0 l 1
 70 0 l 1
 70 478 l 1
 144 478 l 1
EndSplineSet
Validated: 1
EndChar

StartChar: ntilde
Encoding: 241 241 102
Width: 523
Flags: MW
HStem: 416 72<269 306.5> 556 51<321.5 333 321.5 344> 579 51<215 226.5>
VStem: 70 82<0 267 0 478> 164 38<555 561.5 555 564 555 586> 346 38<624.5 631> 375 82<0 295 295 319 0 329>
LayerCount: 2
Fore
SplineSet
384 631 m 1xd4
 384 622 l 2
 384 578 361 556 327 556 c 0xd4
 308 556 288 562 266 568 c 0
 245 575 231 579 222 579 c 0
 208 579 202 568 202 555 c 1
 164 555 l 1
 164 564 l 2
 164 608 187 630 221 630 c 0xba
 240 630 260 624 282 617 c 0
 303 611 317 607 326 607 c 0
 340 607 346 618 346 631 c 1
 384 631 l 1xd4
144 478 m 1
 150 388 l 1
 177 458 240 488 298 488 c 0
 401 488 457 417 457 319 c 2
 457 0 l 1
 375 0 l 1
 375 295 l 2xd2
 375 363 344 416 269 416 c 0
 205 416 152 350 152 267 c 2
 152 0 l 1
 70 0 l 1
 70 478 l 1
 144 478 l 1
EndSplineSet
Validated: 1
EndChar

StartChar: o
Encoding: 111 111 103
Width: 520
Flags: MW
HStem: -10 66<216.5 303.5 216.5 328> 422 66<216.5 303.5>
VStem: 38 90<187.5 290.5 187.5 313.5> 392 90<187.5 290.5>
LayerCount: 2
Fore
SplineSet
260 488 m 0
 396 488 482 388 482 239 c 0
 482 90 396 -10 260 -10 c 0
 124 -10 38 90 38 239 c 0
 38 388 124 488 260 488 c 0
260 422 m 0
 173 422 128 342 128 239 c 0
 128 136 173 56 260 56 c 0
 347 56 392 136 392 239 c 0
 392 342 347 422 260 422 c 0
EndSplineSet
Validated: 1
EndChar

StartChar: oacute
Encoding: 243 243 104
Width: 520
Flags: MW
HStem: -10 66<216.5 303.5 216.5 328> 422 66<216.5 303.5> 538 115
VStem: 38 90<187.5 290.5 187.5 313.5> 392 90<187.5 290.5>
LayerCount: 2
Fore
SplineSet
289 540 m 1
 221 536 l 1
 304 651 l 1
 395 655 l 1
 289 540 l 1
260 488 m 0
 396 488 482 388 482 239 c 0
 482 90 396 -10 260 -10 c 0
 124 -10 38 90 38 239 c 0
 38 388 124 488 260 488 c 0
260 422 m 0
 173 422 128 342 128 239 c 0
 128 136 173 56 260 56 c 0
 347 56 392 136 392 239 c 0
 392 342 347 422 260 422 c 0
EndSplineSet
Validated: 1
EndChar

StartChar: ocircumflex
Encoding: 244 244 105
Width: 520
Flags: MW
HStem: -10 66<216.5 303.5 216.5 328> 422 66<216.5 303.5> 539 116<144 290 144 290 231 377 231 313>
VStem: 38 90<187.5 290.5 187.5 313.5> 392 90<187.5 290.5>
LayerCount: 2
Fore
SplineSet
377 539 m 5
 313 539 l 5
 260 614 l 5
 207 539 l 5
 144 539 l 5
 231 655 l 5
 290 655 l 5
 377 539 l 5
260 488 m 0
 396 488 482 388 482 239 c 0
 482 90 396 -10 260 -10 c 0
 124 -10 38 90 38 239 c 0
 38 388 124 488 260 488 c 0
260 422 m 0
 173 422 128 342 128 239 c 0
 128 136 173 56 260 56 c 0
 347 56 392 136 392 239 c 0
 392 342 347 422 260 422 c 0
EndSplineSet
Validated: 1
EndChar

StartChar: odieresis
Encoding: 246 246 106
Width: 520
Flags: MW
HStem: -10 66<216.5 303.5 216.5 328> 422 66<216.5 303.5> 535 92<169.5 194.5 325.5 350.5>
VStem: 38 90<187.5 290.5 187.5 313.5> 136 92<568.5 593.5> 292 92<568.5 593.5> 392 90<187.5 290.5>
LayerCount: 2
Fore
SplineSet
182 627 m 0
 207 627 228 606 228 581 c 0
 228 556 207 535 182 535 c 0
 157 535 136 556 136 581 c 0
 136 606 157 627 182 627 c 0
338 627 m 0
 363 627 384 606 384 581 c 0
 384 556 363 535 338 535 c 0
 313 535 292 556 292 581 c 0
 292 606 313 627 338 627 c 0
260 488 m 0xd2
 396 488 482 388 482 239 c 0
 482 90 396 -10 260 -10 c 0
 124 -10 38 90 38 239 c 0
 38 388 124 488 260 488 c 0xd2
260 422 m 0
 173 422 128 342 128 239 c 0
 128 136 173 56 260 56 c 0
 347 56 392 136 392 239 c 0
 392 342 347 422 260 422 c 0
EndSplineSet
Validated: 1
EndChar

StartChar: ograve
Encoding: 242 242 107
Width: 520
Flags: MW
HStem: -10 66<216.5 303.5 216.5 328> 422 66<216.5 303.5> 538 115
VStem: 38 90<187.5 290.5 187.5 313.5> 392 90<187.5 290.5>
LayerCount: 2
Fore
SplineSet
215 651 m 1
 298 536 l 1
 230 540 l 1
 124 655 l 1
 215 651 l 1
260 488 m 0
 396 488 482 388 482 239 c 0
 482 90 396 -10 260 -10 c 0
 124 -10 38 90 38 239 c 0
 38 388 124 488 260 488 c 0
260 422 m 0
 173 422 128 342 128 239 c 0
 128 136 173 56 260 56 c 0
 347 56 392 136 392 239 c 0
 392 342 347 422 260 422 c 0
EndSplineSet
Validated: 1
EndChar

StartChar: oslash
Encoding: 248 248 108
Width: 520
Flags: MW
HStem: -10 66<241 303.5 241 328> 422 66<216.5 279>
VStem: 38 90<222 290.5 222 313.5> 392 90<187.5 256>
LayerCount: 2
Fore
SplineSet
502 472 m 1
 438 399 l 1
 466 358 482 303 482 239 c 0
 482 90 396 -10 260 -10 c 0
 203 -10 155 8 118 39 c 1
 58 -29 l 1
 18 6 l 1
 82 79 l 1
 54 120 38 175 38 239 c 0
 38 388 124 488 260 488 c 0
 317 488 365 470 402 439 c 1
 462 507 l 1
 502 472 l 1
143 147 m 1
 350 381 l 1
 328 407 298 422 260 422 c 0
 173 422 128 342 128 239 c 0
 128 205 133 174 143 147 c 1
377 331 m 1
 170 97 l 1
 192 71 222 56 260 56 c 0
 347 56 392 136 392 239 c 0
 392 273 387 304 377 331 c 1
EndSplineSet
Validated: 1
EndChar

StartChar: otilde
Encoding: 245 245 109
Width: 520
Flags: MW
HStem: -10 66<216.5 303.5 216.5 328> 422 66<216.5 303.5> 556 51<307.5 319 307.5 330> 579 51<201 212.5>
VStem: 38 90<187.5 290.5 187.5 313.5> 150 38<555 561.5 555 564 555 586> 332 38<624.5 631> 392 90<187.5 290.5>
LayerCount: 2
Fore
SplineSet
370 631 m 1xeb
 370 622 l 2
 370 578 347 556 313 556 c 0xeb
 294 556 274 562 252 568 c 0
 231 575 217 579 208 579 c 0
 194 579 188 568 188 555 c 1
 150 555 l 1
 150 564 l 2
 150 608 173 630 207 630 c 0xdd
 226 630 246 624 268 617 c 0
 289 611 303 607 312 607 c 0
 326 607 332 618 332 631 c 1
 370 631 l 1xeb
260 488 m 0xc9
 396 488 482 388 482 239 c 0
 482 90 396 -10 260 -10 c 0
 124 -10 38 90 38 239 c 0
 38 388 124 488 260 488 c 0xc9
260 422 m 0
 173 422 128 342 128 239 c 0
 128 136 173 56 260 56 c 0
 347 56 392 136 392 239 c 0
 392 342 347 422 260 422 c 0
EndSplineSet
Validated: 1
EndChar

StartChar: oe
Encoding: 339 339 110
Width: 824
Flags: MW
HStem: -10 66<216.5 300 581 637> 211 67<480 698 480 777 478 698> 418 70<567.5 633.5> 422 66<216.5 300.5 192 303.5>
VStem: 38 90<187.5 290.5 187.5 313.5> 392 86<211 211 211 283.5> 698 83<278 317>
LayerCount: 2
Fore
SplineSet
750 91 m 1xde
 754 23 l 1
 718 3 665 -10 609 -10 c 0
 529 -10 466 26 431 94 c 1
 398 29 340 -10 260 -10 c 0
 124 -10 38 90 38 239 c 0
 38 388 124 488 260 488 c 0xde
 341 488 401 448 433 380 c 1
 468 449 529 488 606 488 c 0xee
 730 488 781 382 781 252 c 0
 781 237 780 227 777 211 c 1
 478 211 l 1
 483 103 533 56 629 56 c 0
 671 56 716 70 750 91 c 1xde
260 56 m 0
 347 56 392 129 392 232 c 0
 392 335 347 422 260 422 c 0
 173 422 128 342 128 239 c 0
 128 136 173 56 260 56 c 0
480 278 m 1
 698 278 l 1
 698 356 670 418 597 418 c 0xee
 531 418 487 362 480 278 c 1
EndSplineSet
Validated: 1
EndChar

StartChar: p
Encoding: 112 112 111
Width: 543
Flags: MW
HStem: -10 69<254.5 318.5 244 350.5> 417 71<265.5 326>
VStem: 70 82<-205 74 173 218 218 270> 415 90<185 289>
LayerCount: 2
Fore
SplineSet
144 478 m 1
 150 391 l 1
 179 449 231 488 300 488 c 0
 422 488 505 390 505 245 c 0
 505 95 414 -10 287 -10 c 0
 222 -10 170 26 152 74 c 1
 152 -205 l 1
 70 -205 l 1
 70 478 l 1
 144 478 l 1
152 270 m 2
 152 218 l 2
 152 128 208 59 280 59 c 0
 357 59 415 129 415 241 c 0
 415 337 369 417 283 417 c 0
 217 417 152 353 152 270 c 2
EndSplineSet
Validated: 1
EndChar

StartChar: q
Encoding: 113 113 112
Width: 543
Flags: MW
HStem: -10 71<217 276.5> 419 69<224.5 290 192.5 299>
VStem: 38 90<189 293 189 308> 391 82<-205 83 83 83 208 260 260 305>
LayerCount: 2
Fore
SplineSet
473 478 m 1
 473 -205 l 1
 391 -205 l 1
 391 83 l 1
 362 27 310 -10 243 -10 c 0
 121 -10 38 88 38 233 c 0
 38 383 129 488 256 488 c 0
 324 488 378 448 394 397 c 1
 399 478 l 1
 473 478 l 1
391 208 m 2
 391 260 l 2
 391 350 335 419 263 419 c 0
 186 419 128 349 128 237 c 0
 128 141 174 61 260 61 c 0
 326 61 391 125 391 208 c 2
EndSplineSet
Validated: 1
EndChar

StartChar: r
Encoding: 114 114 113
Width: 319
Flags: MW
HStem: 413 73<227.5 258>
VStem: 70 82<0 268 0 478>
LayerCount: 2
Fore
SplineSet
144 478 m 1
 149 406 l 1
 163 452 203 486 252 486 c 0
 270 486 286 484 300 481 c 1
 296 407 l 1
 281 411 267 413 249 413 c 0
 190 413 152 361 152 268 c 2
 152 0 l 1
 70 0 l 1
 70 478 l 1
 144 478 l 1
EndSplineSet
Validated: 1
EndChar

StartChar: s
Encoding: 115 115 114
Width: 369
Flags: MW
HStem: -10 68<132 178 132 200> 420 68<190 234.5>
VStem: 49 84<331.5 374 331.5 396> 251 83<106 147>
LayerCount: 2
Fore
SplineSet
33 12 m 1
 38 81 l 1
 82 64 114 58 150 58 c 0
 206 58 251 84 251 128 c 0
 251 166 227 185 176 204 c 0
 94 235 49 270 49 346 c 0
 49 446 131 488 217 488 c 0
 255 488 299 478 324 465 c 1
 319 395 l 1
 294 410 256 420 213 420 c 0
 167 420 133 393 133 355 c 0
 133 308 163 288 203 275 c 0
 294 246 334 206 334 134 c 0
 334 42 251 -10 149 -10 c 0
 107 -10 71 -3 33 12 c 1
EndSplineSet
Validated: 1
EndChar

StartChar: scedilla
Encoding: 351 351 115
Width: 369
Flags: MW
HStem: -168 38<150 174 150 186.5> -10 68<132 149 149 156> 420 68<190 234.5>
VStem: 49 84<331.5 374 331.5 396> 203 58<-106 -84> 251 83<106 147>
LayerCount: 2
Fore
SplineSet
324 465 m 1xf4
 319 395 l 1
 294 410 256 420 213 420 c 0
 167 420 133 393 133 355 c 0
 133 308 163 288 203 275 c 0
 294 246 334 206 334 134 c 0xf4
 334 59 279 11 204 -5 c 1
 192 -26 l 1
 235 -33 261 -55 261 -93 c 0
 261 -143 221 -168 152 -168 c 0
 135 -168 114 -164 98 -155 c 1
 103 -116 l 1
 119 -125 139 -130 161 -130 c 0
 187 -130 203 -116 203 -96 c 0
 203 -72 186 -58 130 -58 c 1
 156 -10 l 1
 149 -10 l 2xf8
 107 -10 71 -3 33 12 c 1
 38 81 l 1
 82 64 114 58 150 58 c 0
 206 58 251 84 251 128 c 0
 251 166 227 185 176 204 c 0
 94 235 49 270 49 346 c 0
 49 446 131 488 217 488 c 0
 255 488 299 478 324 465 c 1xf4
EndSplineSet
Validated: 1
EndChar

StartChar: germandbls
Encoding: 223 223 116
Width: 569
Flags: MW
HStem: -8 66<298 341.5 298 368.5> 327 67<263 299.5> 410 64<39 98 39 98> 679 66<264.5 335.5>
VStem: 98 82<0 410 410 410 474 546 546 559 0 605.5> 422 90<511.5 589> 435 90<143.5 228.5>
LayerCount: 2
Fore
SplineSet
222 4 m 1xba
 227 71 l 1
 256 62 287 58 309 58 c 0
 374 58 435 104 435 183 c 0xfa
 435 274 364 326 263 327 c 1
 263 394 l 1xfc
 336 394 422 447 422 547 c 0
 422 631 376 679 295 679 c 0
 234 679 180 629 180 559 c 2
 180 0 l 1
 98 0 l 1
 98 410 l 1
 39 410 l 1
 39 474 l 1
 98 474 l 1
 98 546 l 2
 98 665 186 745 300 745 c 0
 427 745 512 669 512 558 c 0xbc
 512 465 443 400 361 379 c 1
 468 359 525 278 525 189 c 0
 525 72 433 -8 304 -8 c 0
 279 -8 247 -4 222 4 c 1xba
EndSplineSet
Validated: 1
EndChar

StartChar: t
Encoding: 116 116 117
Width: 335
Flags: MW
HStem: -10 67<232.5 250> 410 64<25 100 25 100 182 311>
VStem: 100 82<132 138 138 410 474 600>
LayerCount: 2
Fore
SplineSet
182 474 m 1
 311 474 l 1
 311 410 l 1
 182 410 l 1
 182 138 l 2
 182 82 211 57 254 57 c 0
 272 57 290 59 307 66 c 1
 311 5 l 1
 293 -4 264 -10 236 -10 c 0
 156 -10 100 28 100 132 c 2
 100 410 l 1
 25 410 l 1
 25 474 l 1
 100 474 l 1
 100 600 l 1
 182 600 l 1
 182 474 l 1
EndSplineSet
Validated: 1
EndChar

StartChar: u
Encoding: 117 117 118
Width: 523
Flags: MW
HStem: -10 72<216.5 254>
VStem: 66 82<159 183 183 478> 371 82<211 478 0 478>
LayerCount: 2
Fore
SplineSet
453 478 m 1
 453 0 l 1
 379 0 l 1
 373 90 l 1
 346 20 283 -10 225 -10 c 0
 122 -10 66 61 66 159 c 2
 66 478 l 1
 148 478 l 1
 148 183 l 2
 148 115 179 62 254 62 c 0
 318 62 371 128 371 211 c 2
 371 478 l 1
 453 478 l 1
EndSplineSet
Validated: 1
EndChar

StartChar: uacute
Encoding: 250 250 119
Width: 523
Flags: MW
HStem: -10 72<216.5 254> 538 115
VStem: 66 82<159 183 183 478> 371 82<211 478>
LayerCount: 2
Fore
SplineSet
289 540 m 1
 221 536 l 1
 304 651 l 1
 395 655 l 1
 289 540 l 1
453 0 m 1
 379 0 l 1
 373 90 l 1
 346 20 283 -10 225 -10 c 0
 122 -10 66 61 66 159 c 2
 66 478 l 1
 148 478 l 1
 148 183 l 2
 148 115 179 62 254 62 c 0
 318 62 371 128 371 211 c 2
 371 478 l 1
 453 478 l 1
 453 0 l 1
EndSplineSet
Validated: 1
EndChar

StartChar: ucircumflex
Encoding: 251 251 120
Width: 523
Flags: MW
HStem: -10 72<216.5 254> 539 116<144 290 144 290 231 377 231 313>
VStem: 66 82<159 183 183 478> 371 82<211 478>
LayerCount: 2
Fore
SplineSet
377 539 m 1
 313 539 l 1
 260 614 l 1
 207 539 l 1
 144 539 l 1
 231 655 l 1
 290 655 l 1
 377 539 l 1
453 0 m 1
 379 0 l 1
 373 90 l 1
 346 20 283 -10 225 -10 c 0
 122 -10 66 61 66 159 c 2
 66 478 l 1
 148 478 l 1
 148 183 l 2
 148 115 179 62 254 62 c 0
 318 62 371 128 371 211 c 2
 371 478 l 1
 453 478 l 1
 453 0 l 1
EndSplineSet
Validated: 1
EndChar

StartChar: udieresis
Encoding: 252 252 121
Width: 523
Flags: MW
HStem: -10 72<216.5 254> 535 92<169.5 194.5 325.5 350.5>
VStem: 66 82<159 183 183 478> 136 92<568.5 593.5> 292 92<568.5 593.5> 371 82<211 478>
LayerCount: 2
Fore
SplineSet
182 627 m 0xd8
 207 627 228 606 228 581 c 0
 228 556 207 535 182 535 c 0
 157 535 136 556 136 581 c 0
 136 606 157 627 182 627 c 0xd8
338 627 m 0
 363 627 384 606 384 581 c 0
 384 556 363 535 338 535 c 0
 313 535 292 556 292 581 c 0
 292 606 313 627 338 627 c 0
453 0 m 1xe4
 379 0 l 1
 373 90 l 1
 346 20 283 -10 225 -10 c 0
 122 -10 66 61 66 159 c 2
 66 478 l 1
 148 478 l 1
 148 183 l 2
 148 115 179 62 254 62 c 0
 318 62 371 128 371 211 c 2
 371 478 l 1
 453 478 l 1
 453 0 l 1xe4
EndSplineSet
Validated: 1
EndChar

StartChar: ugrave
Encoding: 249 249 122
Width: 523
Flags: MW
HStem: -10 72<216.5 254> 538 115
VStem: 66 82<159 183 183 478> 371 82<211 478>
LayerCount: 2
Fore
SplineSet
215 651 m 1
 298 536 l 1
 230 540 l 1
 124 655 l 1
 215 651 l 1
453 0 m 1
 379 0 l 1
 373 90 l 1
 346 20 283 -10 225 -10 c 0
 122 -10 66 61 66 159 c 2
 66 478 l 1
 148 478 l 1
 148 183 l 2
 148 115 179 62 254 62 c 0
 318 62 371 128 371 211 c 2
 371 478 l 1
 453 478 l 1
 453 0 l 1
EndSplineSet
Validated: 1
EndChar

StartChar: v
Encoding: 118 118 123
Width: 455
Flags: MW
HStem: 0 478<8 275 8 184>
VStem: 8 444<478 478>
LayerCount: 2
Fore
SplineSet
275 0 m 1
 184 0 l 1
 8 478 l 1
 102 478 l 1
 232 78 l 1
 363 478 l 1
 452 478 l 1
 275 0 l 1
EndSplineSet
Validated: 1
EndChar

StartChar: w
Encoding: 119 119 124
Width: 655
Flags: MW
HStem: 0 70
VStem: 8 644<478 478>
LayerCount: 2
Fore
SplineSet
512 0 m 1
 420 0 l 1
 374 178 l 2
 358 238 343 298 330 375 c 1
 319 298 304 238 288 178 c 2
 241 0 l 1
 148 0 l 1
 8 478 l 1
 100 478 l 1
 158 258 l 2
 174 198 186 138 195 70 c 1
 204 138 218 198 234 258 c 2
 291 474 l 1
 375 474 l 1
 431 258 l 2
 447 198 460 138 469 70 c 1
 478 138 492 198 508 258 c 2
 566 478 l 1
 652 478 l 1
 512 0 l 1
EndSplineSet
Validated: 1
EndChar

StartChar: wacute
Encoding: 7811 7811 125
Width: 655
Flags: MW
HStem: 0 70 538 115
VStem: 8 644<478 478>
LayerCount: 2
Fore
SplineSet
359 540 m 1
 291 536 l 1
 374 651 l 1
 465 655 l 1
 359 540 l 1
420 0 m 1
 374 178 l 2
 358 238 343 298 330 375 c 1
 319 298 304 238 288 178 c 2
 241 0 l 1
 148 0 l 1
 8 478 l 1
 100 478 l 1
 158 258 l 2
 174 198 186 138 195 70 c 1
 204 138 218 198 234 258 c 2
 291 474 l 1
 375 474 l 1
 431 258 l 2
 447 198 460 138 469 70 c 1
 478 138 492 198 508 258 c 2
 566 478 l 1
 652 478 l 1
 512 0 l 1
 420 0 l 1
EndSplineSet
Validated: 1
EndChar

StartChar: wcircumflex
Encoding: 373 373 126
Width: 655
Flags: MW
HStem: 0 70 539 116<214 360 214 360 301 447 301 383>
VStem: 8 644<478 478>
LayerCount: 2
Fore
SplineSet
447 539 m 1
 383 539 l 1
 330 614 l 1
 277 539 l 1
 214 539 l 1
 301 655 l 1
 360 655 l 1
 447 539 l 1
420 0 m 1
 374 178 l 2
 358 238 343 298 330 375 c 1
 319 298 304 238 288 178 c 2
 241 0 l 1
 148 0 l 1
 8 478 l 1
 100 478 l 1
 158 258 l 2
 174 198 186 138 195 70 c 1
 204 138 218 198 234 258 c 2
 291 474 l 1
 375 474 l 1
 431 258 l 2
 447 198 460 138 469 70 c 1
 478 138 492 198 508 258 c 2
 566 478 l 1
 652 478 l 1
 512 0 l 1
 420 0 l 1
EndSplineSet
Validated: 1
EndChar

StartChar: wdieresis
Encoding: 7813 7813 127
Width: 655
Flags: MW
HStem: 0 70 535 92<239.5 264.5 395.5 420.5>
VStem: 206 92<568.5 593.5> 362 92<568.5 593.5>
LayerCount: 2
Fore
SplineSet
252 627 m 0
 277 627 298 606 298 581 c 0
 298 556 277 535 252 535 c 0
 227 535 206 556 206 581 c 0
 206 606 227 627 252 627 c 0
408 627 m 0
 433 627 454 606 454 581 c 0
 454 556 433 535 408 535 c 0
 383 535 362 556 362 581 c 0
 362 606 383 627 408 627 c 0
420 0 m 1
 374 178 l 2
 358 238 343 298 330 375 c 1
 319 298 304 238 288 178 c 2
 241 0 l 1
 148 0 l 1
 8 478 l 1
 100 478 l 1
 158 258 l 2
 174 198 186 138 195 70 c 1
 204 138 218 198 234 258 c 2
 291 474 l 1
 375 474 l 1
 431 258 l 2
 447 198 460 138 469 70 c 1
 478 138 492 198 508 258 c 2
 566 478 l 1
 652 478 l 1
 512 0 l 1
 420 0 l 1
EndSplineSet
Validated: 1
EndChar

StartChar: wgrave
Encoding: 7809 7809 128
Width: 655
Flags: MW
HStem: 0 70 538 115
VStem: 8 644<478 478>
LayerCount: 2
Fore
SplineSet
285 651 m 1
 368 536 l 1
 300 540 l 1
 194 655 l 1
 285 651 l 1
420 0 m 1
 374 178 l 2
 358 238 343 298 330 375 c 1
 319 298 304 238 288 178 c 2
 241 0 l 1
 148 0 l 1
 8 478 l 1
 100 478 l 1
 158 258 l 2
 174 198 186 138 195 70 c 1
 204 138 218 198 234 258 c 2
 291 474 l 1
 375 474 l 1
 431 258 l 2
 447 198 460 138 469 70 c 1
 478 138 492 198 508 258 c 2
 566 478 l 1
 652 478 l 1
 512 0 l 1
 420 0 l 1
EndSplineSet
Validated: 1
EndChar

StartChar: x
Encoding: 120 120 129
Width: 426
Flags: MW
HStem: 0 478<5 90 1 99 319 404 5 309>
VStem: 1 407
LayerCount: 2
Fore
SplineSet
250 238 m 1
 404 0 l 1
 309 0 l 1
 199 180 l 1
 90 0 l 1
 1 0 l 1
 156 238 l 1
 5 478 l 1
 99 478 l 1
 208 295 l 1
 319 478 l 1
 408 478 l 1
 250 238 l 1
EndSplineSet
Validated: 1
EndChar

StartChar: y
Encoding: 121 121 130
Width: 455
Flags: MW
HStem: -215 693<65 65>
VStem: 8 444<478 478>
LayerCount: 2
Fore
SplineSet
452 478 m 1
 275 0 l 2
 235 -109 160 -188 65 -215 c 1
 36 -145 l 1
 109 -119 163 -76 187 -8 c 1
 8 478 l 1
 102 478 l 1
 232 78 l 1
 363 478 l 1
 452 478 l 1
EndSplineSet
Validated: 1
EndChar

StartChar: yacute
Encoding: 253 253 131
Width: 455
Flags: MW
HStem: 538 115
VStem: 8 444<478 478>
LayerCount: 2
Fore
SplineSet
259 540 m 1
 191 536 l 1
 274 651 l 1
 365 655 l 1
 259 540 l 1
452 478 m 1
 275 0 l 2
 235 -109 160 -188 65 -215 c 1
 36 -145 l 1
 109 -119 163 -76 187 -8 c 1
 8 478 l 1
 102 478 l 1
 232 78 l 1
 363 478 l 1
 452 478 l 1
EndSplineSet
Validated: 1
EndChar

StartChar: ycircumflex
Encoding: 375 375 132
Width: 455
Flags: MW
HStem: 539 116<113 259 113 259 200 346 200 282>
VStem: 8 444<478 478>
LayerCount: 2
Fore
SplineSet
346 539 m 1
 282 539 l 1
 229 614 l 1
 176 539 l 1
 113 539 l 1
 200 655 l 1
 259 655 l 1
 346 539 l 1
452 478 m 1
 275 0 l 2
 235 -109 160 -188 65 -215 c 1
 36 -145 l 1
 109 -119 163 -76 187 -8 c 1
 8 478 l 1
 102 478 l 1
 232 78 l 1
 363 478 l 1
 452 478 l 1
EndSplineSet
Validated: 1
EndChar

StartChar: ydieresis
Encoding: 255 255 133
Width: 455
Flags: MW
HStem: 535 92<139.5 164.5 295.5 320.5>
VStem: 106 92<568.5 593.5> 262 92<568.5 593.5>
LayerCount: 2
Fore
SplineSet
152 627 m 0
 177 627 198 606 198 581 c 0
 198 556 177 535 152 535 c 0
 127 535 106 556 106 581 c 0
 106 606 127 627 152 627 c 0
308 627 m 0
 333 627 354 606 354 581 c 0
 354 556 333 535 308 535 c 0
 283 535 262 556 262 581 c 0
 262 606 283 627 308 627 c 0
452 478 m 1
 275 0 l 2
 235 -109 160 -188 65 -215 c 1
 36 -145 l 1
 109 -119 163 -76 187 -8 c 1
 8 478 l 1
 102 478 l 1
 232 78 l 1
 363 478 l 1
 452 478 l 1
EndSplineSet
Validated: 1
EndChar

StartChar: ygrave
Encoding: 7923 7923 134
Width: 455
Flags: MW
HStem: 538 115
VStem: 8 444<478 478>
LayerCount: 2
Fore
SplineSet
185 651 m 1
 268 536 l 1
 200 540 l 1
 94 655 l 1
 185 651 l 1
452 478 m 1
 275 0 l 2
 235 -109 160 -188 65 -215 c 1
 36 -145 l 1
 109 -119 163 -76 187 -8 c 1
 8 478 l 1
 102 478 l 1
 232 78 l 1
 363 478 l 1
 452 478 l 1
EndSplineSet
Validated: 1
EndChar

StartChar: z
Encoding: 122 122 135
Width: 396
Flags: MW
HStem: 0 64<119 370 119 370> 410 64<42 273 42 369 42 369>
VStem: 26 344<0 61 61 61>
LayerCount: 2
Fore
SplineSet
369 410 m 1
 119 64 l 1
 370 64 l 1
 370 0 l 1
 26 0 l 1
 26 61 l 1
 273 410 l 1
 42 410 l 1
 42 474 l 1
 369 474 l 1
 369 410 l 1
EndSplineSet
Validated: 1
EndChar

StartChar: fi
Encoding: 64257 64257 136
Width: 505
Flags: MW
HStem: 410 64<26 93 26 93 175 353> 677 68<265.5 332>
VStem: 93 82<0 410 0 410 474 488 488 499> 353 82<0 410 410 410>
LayerCount: 2
Fore
SplineSet
435 474 m 1
 435 0 l 1
 353 0 l 1
 353 410 l 1
 175 410 l 1
 175 0 l 1
 93 0 l 1
 93 410 l 1
 26 410 l 1
 26 474 l 1
 93 474 l 1
 93 488 l 2
 93 664 185 745 320 745 c 0
 362 745 403 733 423 719 c 1
 415 649 l 1
 387 668 352 677 312 677 c 0
 219 677 175 603 175 499 c 2
 175 474 l 1
 435 474 l 1
EndSplineSet
Validated: 1
Ligature2: "'liga' Standard Ligatures in Latin lookup 0 subtable" f i
EndChar

StartChar: fl
Encoding: 64258 64258 137
Width: 528
Flags: MW
HStem: 410 64<26 93 26 93 175 296> 679 66<272.5 321.5>
VStem: 93 82<0 410 0 410 474 509 509 520> 376 82<0 671 671 671>
LayerCount: 2
Fore
SplineSet
376 0 m 1
 376 671 l 1
 359 676 333 679 310 679 c 0
 235 679 175 620 175 520 c 2
 175 474 l 1
 296 474 l 1
 296 410 l 1
 175 410 l 1
 175 0 l 1
 93 0 l 1
 93 410 l 1
 26 410 l 1
 26 474 l 1
 93 474 l 1
 93 509 l 2
 93 657 189 745 323 745 c 0
 376 745 428 735 458 724 c 1
 458 0 l 1
 376 0 l 1
EndSplineSet
Validated: 1
Ligature2: "'liga' Standard Ligatures in Latin lookup 0 subtable" f l
EndChar

StartChar: zero
Encoding: 48 48 138
Width: 490
Flags: MW
HStem: -10 72<202.5 287.5 202.5 309.5> 600 72<203.5 288.5>
VStem: 36 90<248.5 412 248.5 442.5> 364 90<250.5 411.5>
LayerCount: 2
Fore
SplineSet
245 672 m 0
 374 672 454 557 454 331 c 0
 454 105 374 -10 245 -10 c 0
 114 -10 36 105 36 331 c 0
 36 554 116 672 245 672 c 0
245 600 m 0
 162 600 126 493 126 331 c 0
 126 166 160 62 245 62 c 0
 330 62 364 170 364 331 c 0
 364 492 332 600 245 600 c 0
EndSplineSet
Validated: 1
EndChar

StartChar: one
Encoding: 49 49 139
Width: 490
Flags: MW
HStem: 0 662<296 361 296 361 279 361>
VStem: 279 82<0 558 558 558>
LayerCount: 2
Fore
SplineSet
361 0 m 1
 279 0 l 1
 279 558 l 1
 100 450 l 1
 98 535 l 1
 296 662 l 1
 361 662 l 1
 361 0 l 1
EndSplineSet
Validated: 1
EndChar

StartChar: two
Encoding: 50 50 140
Width: 490
Flags: MW
HStem: 0 72<145 440 145 440> 600 72<207.5 264.5>
VStem: 339 92<465 525.5>
LayerCount: 2
Fore
SplineSet
82 532 m 1
 79 617 l 1
 121 654 178 672 237 672 c 0
 359 672 431 598 431 498 c 0
 431 410 380 336 239 178 c 2
 145 72 l 1
 440 72 l 1
 440 0 l 1
 41 0 l 1
 41 62 l 1
 185 228 l 2
 320 384 339 434 339 496 c 0
 339 555 304 600 225 600 c 0
 180 600 120 575 82 532 c 1
EndSplineSet
Validated: 1
EndChar

StartChar: three
Encoding: 51 51 141
Width: 490
Flags: MW
HStem: -10 72<172 237.5 172 256.5> 300 64<146 195 146 208.5> 600 72<197 245>
VStem: 327 92<466 531> 334 92<139 212.5>
LayerCount: 2
Fore
SplineSet
80 554 m 1xe8
 77 630 l 1
 113 655 170 672 224 672 c 0
 353 672 419 600 419 512 c 0xf0
 419 420 340 363 255 348 c 1
 358 339 426 268 426 183 c 0
 426 61 320 -10 193 -10 c 0
 139 -10 89 0 44 26 c 1
 51 101 l 1
 101 74 147 62 197 62 c 0
 278 62 334 103 334 175 c 0xe8
 334 250 271 300 146 300 c 1
 146 364 l 1
 244 364 327 427 327 499 c 0xf0
 327 563 284 600 206 600 c 0
 165 600 117 581 80 554 c 1xe8
EndSplineSet
Validated: 1
EndChar

StartChar: four
Encoding: 52 52 142
Width: 490
Flags: MW
HStem: 171 72<133 299 133 299 381 464>
VStem: 299 82<1 171 1 171 243 397 397 417>
LayerCount: 2
Fore
SplineSet
381 243 m 1
 464 243 l 1
 464 171 l 1
 381 171 l 1
 381 1 l 1
 299 1 l 1
 299 171 l 1
 40 171 l 1
 40 235 l 1
 272 662 l 1
 381 662 l 1
 381 243 l 1
133 243 m 1
 299 243 l 1
 299 397 l 2
 299 437 299 496 303 576 c 1
 133 243 l 1
EndSplineSet
Validated: 1
EndChar

StartChar: five
Encoding: 53 53 143
Width: 490
Flags: MW
HStem: -10 72<187.5 249.5 187.5 269.5> 323 72<80 189> 586 72<180 423 180 180>
VStem: 91 82.5 343 92<148.5 229.5>
LayerCount: 2
Fore
SplineSet
423 586 m 1
 180 586 l 1
 167 395 l 1
 189 395 l 2
 353 395 435 310 435 194 c 0
 435 66 334 -10 205 -10 c 0
 151 -10 100 0 57 26 c 1
 63 104 l 1
 114 73 166 62 209 62 c 0
 290 62 343 112 343 185 c 0
 343 274 286 323 160 323 c 2
 80 323 l 1
 102 658 l 1
 423 658 l 1
 423 586 l 1
EndSplineSet
Validated: 1
EndChar

StartChar: six
Encoding: 54 54 144
Width: 490
Flags: MW
HStem: -10 70<213 278 213 304.5> 310 73<240 286.5> 597 75<408 419>
VStem: 45 88 361 89<147.5 214>
LayerCount: 2
Fore
SplineSet
408 672 m 1
 419 597 l 1
 256 587 148 469 133 302 c 1
 157 349 210 383 270 383 c 0
 390 383 450 284 450 196 c 0
 450 75 359 -10 250 -10 c 0
 134 -10 45 74 45 250 c 0
 45 496 201 660 408 672 c 1
245 310 m 0
 180 310 135 257 135 198 c 0
 135 121 179 60 247 60 c 0
 309 60 361 115 361 180 c 0
 361 248 328 310 245 310 c 0
EndSplineSet
Validated: 1
EndChar

StartChar: seven
Encoding: 55 55 145
Width: 490
Flags: MW
HStem: 586 72<53 369 53 461>
VStem: 53 408<593 593 593 658 593 658>
LayerCount: 2
Fore
SplineSet
461 593 m 1
 182 1 l 1
 94 1 l 1
 369 586 l 1
 53 586 l 1
 53 658 l 1
 461 658 l 1
 461 593 l 1
EndSplineSet
Validated: 1
EndChar

StartChar: eight
Encoding: 56 56 146
Width: 490
Flags: MW
HStem: -10 70<211 277 211 297> 603 69<218.5 283>
VStem: 45 88<136.5 200.5> 63 87<469 529.5 469 550> 351 87<470.5 530.5> 357 88<135 195.5>
LayerCount: 2
Fore
SplineSet
253 672 m 0xd8
 366 672 438 604 438 505 c 0xe8
 438 431 392 372 322 345 c 1
 410 304 445 243 445 169 c 0
 445 58 353 -10 241 -10 c 0
 126 -10 45 58 45 159 c 0xe4
 45 242 95 311 176 336 c 1
 109 363 63 421 63 497 c 0
 63 603 143 672 253 672 c 0xd8
251 603 m 0
 186 603 150 561 150 498 c 0
 150 440 185 394 250 377 c 1
 313 389 351 443 351 498 c 0
 351 563 315 603 251 603 c 0
246 303 m 1xe4
 169 284 133 238 133 168 c 0
 133 105 180 60 242 60 c 0
 312 60 357 106 357 164 c 0
 357 227 328 278 246 303 c 1xe4
EndSplineSet
Validated: 1
EndChar

StartChar: nine
Encoding: 57 57 147
Width: 490
Flags: MW
HStem: -10 75<71 82> 279 73<203.5 250> 602 70<212 277>
VStem: 40 89<448 514.5 448 526.5> 357 88
LayerCount: 2
Fore
SplineSet
82 -10 m 1
 71 65 l 1
 234 75 342 193 357 360 c 1
 333 313 280 279 220 279 c 0
 100 279 40 378 40 466 c 0
 40 587 131 672 240 672 c 0
 356 672 445 588 445 412 c 0
 445 166 289 2 82 -10 c 1
243 602 m 0
 181 602 129 547 129 482 c 0
 129 414 162 352 245 352 c 0
 310 352 355 405 355 464 c 0
 355 541 311 602 243 602 c 0
EndSplineSet
Validated: 1
EndChar

StartChar: asterisk
Encoding: 42 42 148
Width: 468
Flags: MW
HStem: 278 377<156 279 189 312>
VStem: 36 396<478 478>
LayerCount: 2
Fore
SplineSet
263 500 m 1
 405 564 l 1
 432 478 l 1
 280 446 l 1
 384 330 l 1
 312 278 l 1
 234 412 l 1
 156 278 l 1
 84 330 l 1
 188 446 l 1
 36 478 l 1
 63 564 l 1
 205 500 l 1
 189 655 l 1
 279 655 l 1
 263 500 l 1
EndSplineSet
Validated: 1
EndChar

StartChar: backslash
Encoding: 92 92 149
Width: 392
Flags: MW
HStem: -97 846<-5 397 -5 337>
VStem: -5 402
LayerCount: 2
Fore
SplineSet
397 -97 m 1
 337 -97 l 1
 -5 749 l 1
 54 749 l 1
 397 -97 l 1
EndSplineSet
Validated: 1
EndChar

StartChar: colon
Encoding: 58 58 150
Width: 224
Flags: MW
HStem: -10 120<84.5 117.5> 368 120<84.5 117.5>
VStem: 41 120<33.5 66.5 411.5 444.5>
LayerCount: 2
Fore
SplineSet
101 488 m 0
 134 488 161 461 161 428 c 0
 161 395 134 368 101 368 c 0
 68 368 41 395 41 428 c 0
 41 461 68 488 101 488 c 0
101 110 m 0
 134 110 161 83 161 50 c 0
 161 17 134 -10 101 -10 c 0
 68 -10 41 17 41 50 c 0
 41 83 68 110 101 110 c 0
EndSplineSet
Validated: 1
EndChar

StartChar: comma
Encoding: 44 44 151
Width: 224
Flags: MW
HStem: -147 252<-23 149>
VStem: -23 172
LayerCount: 2
Fore
SplineSet
42 -142 m 1
 -23 -147 l 1
 51 101 l 1
 149 105 l 1
 42 -142 l 1
EndSplineSet
Validated: 1
EndChar

StartChar: ellipsis
Encoding: 8230 8230 152
Width: 684
Flags: MW
HStem: -10 120<84.5 117.5 314.5 347.5 544.5 577.5>
VStem: 41 120<33.5 66.5> 271 120<33.5 66.5> 501 120<33.5 66.5>
LayerCount: 2
Fore
SplineSet
101 110 m 0
 134 110 161 83 161 50 c 0
 161 17 134 -10 101 -10 c 0
 68 -10 41 17 41 50 c 0
 41 83 68 110 101 110 c 0
331 110 m 0
 364 110 391 83 391 50 c 0
 391 17 364 -10 331 -10 c 0
 298 -10 271 17 271 50 c 0
 271 83 298 110 331 110 c 0
561 110 m 0
 594 110 621 83 621 50 c 0
 621 17 594 -10 561 -10 c 0
 528 -10 501 17 501 50 c 0
 501 83 528 110 561 110 c 0
EndSplineSet
Validated: 1
EndChar

StartChar: exclam
Encoding: 33 33 153
Width: 250
Flags: MW
HStem: -6 120<108.5 141.5>
VStem: 65 120<37.5 70.5> 83 84
LayerCount: 2
Fore
SplineSet
161 170 m 1xa0
 89 170 l 1
 77 688 l 1
 173 688 l 1
 161 170 l 1xa0
125 114 m 0xc0
 158 114 185 87 185 54 c 0
 185 21 158 -6 125 -6 c 0
 92 -6 65 21 65 54 c 0
 65 87 92 114 125 114 c 0xc0
EndSplineSet
Validated: 1
EndChar

StartChar: exclamdown
Encoding: 161 161 154
Width: 250
Flags: MW
HStem: 368 120<108.5 141.5>
VStem: 65 120<411.5 444.5> 83 84
LayerCount: 2
Fore
SplineSet
125 488 m 0xc0
 158 488 185 461 185 428 c 0
 185 395 158 368 125 368 c 0
 92 368 65 395 65 428 c 0
 65 461 92 488 125 488 c 0xc0
173 -206 m 1xa0
 77 -206 l 1
 89 312 l 1
 161 312 l 1
 173 -206 l 1xa0
EndSplineSet
Validated: 1
EndChar

StartChar: numbersign
Encoding: 35 35 155
Width: 490
Flags: MW
HStem: 216 48<48 123 48 133 190 267 48 180 334 413> 398 48<83 162 83 172 83 219 229 306 373 448>
VStem: 48 400<216 446 264 446>
LayerCount: 2
Fore
SplineSet
363 398 m 1
 334 264 l 1
 413 264 l 1
 413 216 l 1
 324 216 l 1
 273 -20 l 1
 216 -20 l 1
 267 216 l 1
 180 216 l 1
 129 -20 l 1
 72 -20 l 1
 123 216 l 1
 48 216 l 1
 48 264 l 1
 133 264 l 1
 162 398 l 1
 83 398 l 1
 83 446 l 1
 172 446 l 1
 223 682 l 1
 280 682 l 1
 229 446 l 1
 316 446 l 1
 367 682 l 1
 424 682 l 1
 373 446 l 1
 448 446 l 1
 448 398 l 1
 363 398 l 1
277 264 m 1
 306 398 l 1
 219 398 l 1
 190 264 l 1
 277 264 l 1
EndSplineSet
Validated: 1
EndChar

StartChar: period
Encoding: 46 46 156
Width: 224
Flags: MW
HStem: -10 120<84.5 117.5>
VStem: 41 120<33.5 66.5>
LayerCount: 2
Fore
SplineSet
101 110 m 0
 134 110 161 83 161 50 c 0
 161 17 134 -10 101 -10 c 0
 68 -10 41 17 41 50 c 0
 41 83 68 110 101 110 c 0
EndSplineSet
Validated: 1
EndChar

StartChar: question
Encoding: 63 63 157
Width: 415
Flags: MW
HStem: -10 120<156.5 189.5> 626 72<164.5 215>
VStem: 113 120<33.5 66.5> 125 89<170 199.5> 289 92<508 560>
LayerCount: 2
Fore
SplineSet
39 579 m 1x58
 35 653 l 1
 69 680 135 698 194 698 c 0
 312 698 381 641 381 542 c 0
 381 472 345 414 271 330 c 0
 225 277 214 237 214 170 c 1
 125 170 l 1
 125 229 134 287 197 359 c 0
 272 445 289 486 289 530 c 0
 289 590 251 626 179 626 c 0
 137 626 75 608 39 579 c 1x58
173 110 m 0xe8
 206 110 233 83 233 50 c 0
 233 17 206 -10 173 -10 c 0
 140 -10 113 17 113 50 c 0
 113 83 140 110 173 110 c 0xe8
EndSplineSet
Validated: 1
EndChar

StartChar: questiondown
Encoding: 191 191 158
Width: 404
Flags: MW
HStem: -216 72<207 257.5> 368 120<225.5 258.5>
VStem: 34 92<-78 -26 -78 -17> 182 120<411.5 444.5> 201 84<278.5 283 249.5 312>
LayerCount: 2
Fore
SplineSet
242 488 m 0xf0
 275 488 302 461 302 428 c 0
 302 395 275 368 242 368 c 0
 209 368 182 395 182 428 c 0
 182 461 209 488 242 488 c 0xf0
201 312 m 1xa8
 283 312 l 1
 285 297 285 290 285 276 c 0
 285 223 264 176 218 123 c 0
 143 37 126 -4 126 -48 c 0
 126 -108 171 -144 243 -144 c 0
 285 -144 340 -126 376 -97 c 1
 380 -171 l 1
 346 -198 287 -216 228 -216 c 0
 110 -216 34 -151 34 -52 c 0
 34 18 70 68 144 152 c 0
 190 205 201 245 201 312 c 1xa8
EndSplineSet
Validated: 1
EndChar

StartChar: quotedbl
Encoding: 34 34 159
Width: 320
Flags: MW
HStem: 466 269<63 117 63 63 193 193 193 247>
VStem: 59 67 189 67
LayerCount: 2
Fore
SplineSet
117 466 m 1
 63 466 l 1
 55 735 l 1
 135 735 l 1
 117 466 l 1
247 466 m 1
 193 466 l 1
 185 735 l 1
 265 735 l 1
 247 466 l 1
EndSplineSet
Validated: 1
EndChar

StartChar: quotesingle
Encoding: 39 39 160
Width: 190
Flags: MW
HStem: 466 269<63 117 63 63>
VStem: 59 67
LayerCount: 2
Fore
SplineSet
117 466 m 1
 63 466 l 1
 55 735 l 1
 135 735 l 1
 117 466 l 1
EndSplineSet
Validated: 1
EndChar

StartChar: semicolon
Encoding: 59 59 161
Width: 224
Flags: MW
HStem: 368 120<84.5 117.5>
VStem: 41 120<411.5 444.5>
LayerCount: 2
Fore
SplineSet
101 488 m 0
 134 488 161 461 161 428 c 0
 161 395 134 368 101 368 c 0
 68 368 41 395 41 428 c 0
 41 461 68 488 101 488 c 0
42 -142 m 1
 -23 -147 l 1
 51 101 l 1
 149 105 l 1
 42 -142 l 1
EndSplineSet
Validated: 1
EndChar

StartChar: slash
Encoding: 47 47 162
Width: 393
Flags: MW
HStem: -97 846<-5 398 -5 398>
VStem: -5 403
LayerCount: 2
Fore
SplineSet
55 -97 m 1
 -5 -97 l 1
 337 749 l 1
 398 749 l 1
 55 -97 l 1
EndSplineSet
Validated: 1
EndChar

StartChar: underscore
Encoding: 95 95 163
Width: 500
Flags: MW
HStem: -86 48<0 500 0 500>
VStem: 0 500<-86 -38 -86 -38>
LayerCount: 2
Fore
SplineSet
500 -86 m 1
 0 -86 l 1
 0 -38 l 1
 500 -38 l 1
 500 -86 l 1
EndSplineSet
Validated: 1
EndChar

StartChar: braceleft
Encoding: 123 123 164
Width: 351
Flags: HMW
HStem: -102 48<239.5 274 239.5 274> 302 48<75 103.5> 706 48<239.5 274>
VStem: 133 54<586 608> 139.5 56.5 146 58<217 229>
LayerCount: 2
Fore
SplineSet
274 754 m 1xe8
 274 706 l 1
 212.398145237 706 185.866799705 687.667688356 185.866799705 630.366752792 c 0
 185.866799705 623.485131369 186.249463527 616.041462214 187 608 c 2xf0
 204 423 l 2
 204.422620263 418.351177108 204.630911062 413.873817788 204.630911062 409.567318172 c 0
 204.630911062 362.923827996 180.196417634 336.323807579 139 329 c 1xe4
 183.305758168 320.862207683 204.719385644 293.102589059 204.719385644 244.981892519 c 0
 204.719385644 239.883453941 204.479004269 234.556449515 204 229 c 2
 188 44 l 2
 187.3970688 36.4633600048 187.086978015 29.4518131663 187.086978015 22.9359323805 c 0
 187.086978015 -35.390219788 211.933708796 -54 274 -54 c 1
 274 -102 l 1
 176.832118809 -102 131.618174164 -66.5393766433 131.618174164 33.5885016402 c 0
 131.618174164 43.720133444 132.081110392 54.513879896 133 66 c 2
 146 217 l 2
 146.505903591 223.677927399 146.766106276 229.874690524 146.766106276 235.619292936 c 0
 146.766106276 286.650354073 126.232699065 302 75 302 c 1xe8
 75 350 l 1
 126.232699065 350 146.766106276 365.349645927 146.766106276 416.380707064 c 0
 146.766106276 422.125309476 146.505903591 428.322072601 146 435 c 2xe4
 133 586 l 2xf0
 132.081110392 597.486120104 131.618174164 608.279866556 131.618174164 618.41149836 c 0
 131.618174164 718.539376643 176.832118809 754 274 754 c 1xe8
EndSplineSet
Validated: 1
EndChar

StartChar: braceright
Encoding: 125 125 165
Width: 351
Flags: HMW
HStem: -102 48<77 111.5 77 130.5> 302 48<247.5 276> 706 48<77 111.5>
VStem: 155 56.5
LayerCount: 2
Fore
SplineSet
77 706 m 1
 77 754 l 1
 174.167881191 754 219.381825836 718.539376643 219.381825836 618.41149836 c 0
 219.381825836 608.279866556 218.918889608 597.486120104 218 586 c 2
 205 435 l 2
 204.494096409 428.322072601 204.233893724 422.125309476 204.233893724 416.380707064 c 0
 204.233893724 365.349645927 224.767300935 350 276 350 c 1
 276 302 l 1
 224.767300935 302 204.233893724 286.650354073 204.233893724 235.619292936 c 0
 204.233893724 229.874690524 204.494096409 223.677927399 205 217 c 2
 218 66 l 2
 218.918889608 54.513879896 219.381825836 43.720133444 219.381825836 33.5885016402 c 0
 219.381825836 -66.5393766433 174.167881191 -102 77 -102 c 1
 77 -54 l 1
 139.066291204 -54 163.913021985 -35.390219788 163.913021985 22.9359323805 c 0
 163.913021985 29.4518131663 163.6029312 36.4633600048 163 44 c 2
 147 229 l 2
 146.564385095 233.791763954 146.348892191 238.401357976 146.348892191 242.829443366 c 0
 146.348892191 289.227045303 170.007657125 315.696983848 212 323 c 1
 167.694241832 331.137792317 146.280614356 358.897410941 146.280614356 407.018107481 c 0
 146.280614356 412.116546059 146.520995731 417.443550485 147 423 c 2
 163 608 l 2
 163.6029312 615.536639995 163.913021985 622.548186834 163.913021985 629.064067619 c 0
 163.913021985 687.390219788 139.066291204 706 77 706 c 1
EndSplineSet
Validated: 1
EndChar

StartChar: bracketleft
Encoding: 91 91 166
Width: 350
Flags: MW
HStem: -97 48<156 272 156 272> 701 48<156 272 156 156>
VStem: 100 56<-49 701 -49 749 -49 749>
LayerCount: 2
Fore
SplineSet
272 701 m 1
 156 701 l 1
 156 -49 l 1
 272 -49 l 1
 272 -97 l 1
 100 -97 l 1
 100 749 l 1
 272 749 l 1
 272 701 l 1
EndSplineSet
Validated: 1
EndChar

StartChar: bracketright
Encoding: 93 93 167
Width: 350
Flags: MW
HStem: -97 48<78 194 78 250 78 194> 701 48<78 194 78 250>
VStem: 194 56<-49 701 701 701>
LayerCount: 2
Fore
SplineSet
250 -97 m 1
 78 -97 l 1
 78 -49 l 1
 194 -49 l 1
 194 701 l 1
 78 701 l 1
 78 749 l 1
 250 749 l 1
 250 -97 l 1
EndSplineSet
Validated: 1
EndChar

StartChar: parenleft
Encoding: 40 40 168
Width: 290
Flags: MW
HStem: -108 868<225 225>
VStem: 77 61<242.5 409.5>
LayerCount: 2
Fore
SplineSet
225 760 m 1
 258 738 l 1
 184 631 138 500 138 326 c 0
 138 152 184 21 258 -86 c 1
 225 -108 l 1
 140 -18 77 159 77 326 c 0
 77 493 140 670 225 760 c 1
EndSplineSet
Validated: 1
EndChar

StartChar: parenright
Encoding: 41 41 169
Width: 290
Flags: MW
HStem: -108 868<65 65>
VStem: 152 61<242.5 409.5 242.5 413>
LayerCount: 2
Fore
SplineSet
32 738 m 1
 65 760 l 1
 150 670 213 493 213 326 c 0
 213 159 150 -18 65 -108 c 1
 32 -86 l 1
 106 21 152 152 152 326 c 0
 152 500 106 631 32 738 c 1
EndSplineSet
Validated: 1
EndChar

StartChar: emdash
Encoding: 8212 8212 170
Width: 1000
Flags: MW
HStem: 246 48<56 944 56 944>
VStem: 56 888<246 294 246 294>
LayerCount: 2
Fore
SplineSet
944 246 m 1
 56 246 l 1
 56 294 l 1
 944 294 l 1
 944 246 l 1
EndSplineSet
Validated: 1
EndChar

StartChar: endash
Encoding: 8211 8211 171
Width: 500
Flags: MW
HStem: 246 48<56 444 56 444>
VStem: 56 388<246 294 246 294>
LayerCount: 2
Fore
SplineSet
444 246 m 1
 56 246 l 1
 56 294 l 1
 444 294 l 1
 444 246 l 1
EndSplineSet
Validated: 1
EndChar

StartChar: hyphen
Encoding: 45 45 172
Width: 348
Flags: MW
HStem: 246 48<56 292 56 292>
VStem: 56 236<246 294 246 294>
LayerCount: 2
Fore
SplineSet
292 246 m 5
 56 246 l 5
 56 294 l 5
 292 294 l 5
 292 246 l 5
EndSplineSet
Validated: 1
EndChar

StartChar: guillemotleft
Encoding: 171 171 173
Width: 436
Flags: MW
HStem: 83 338<164 236 164 236 164 314 314 386>
VStem: 45 341<83 252>
LayerCount: 2
Fore
SplineSet
117 252 m 1
 236 83 l 1
 164 83 l 1
 45 252 l 1
 164 421 l 1
 236 421 l 1
 117 252 l 1
267 252 m 1
 386 83 l 1
 314 83 l 1
 195 252 l 1
 314 421 l 1
 386 421 l 1
 267 252 l 1
EndSplineSet
Validated: 1
EndChar

StartChar: guillemotright
Encoding: 187 187 174
Width: 436
Flags: MW
HStem: 83 338<50 122 50 122 50 200 200 272>
VStem: 50 341<83 252 252 421>
LayerCount: 2
Fore
SplineSet
241 252 m 1
 122 83 l 1
 50 83 l 1
 169 252 l 1
 50 421 l 1
 122 421 l 1
 241 252 l 1
391 252 m 1
 272 83 l 1
 200 83 l 1
 319 252 l 1
 200 421 l 1
 272 421 l 1
 391 252 l 1
EndSplineSet
Validated: 1
EndChar

StartChar: guilsinglleft
Encoding: 8249 8249 175
Width: 286
Flags: MW
HStem: 83 338<164 236 164 236>
VStem: 45 191<83 252>
LayerCount: 2
Fore
SplineSet
117 252 m 1
 236 83 l 1
 164 83 l 1
 45 252 l 1
 164 421 l 1
 236 421 l 1
 117 252 l 1
EndSplineSet
Validated: 1
EndChar

StartChar: guilsinglright
Encoding: 8250 8250 176
Width: 286
Flags: MW
HStem: 83 338<50 122 50 122>
VStem: 50 191<83 252 252 421>
LayerCount: 2
Fore
SplineSet
241 252 m 1
 122 83 l 1
 50 83 l 1
 169 252 l 1
 50 421 l 1
 122 421 l 1
 241 252 l 1
EndSplineSet
Validated: 1
EndChar

StartChar: quotedblbase
Encoding: 8222 8222 177
Width: 374
Flags: MW
HStem: -147 252<-23 149 127 149>
VStem: -23 322<-147 105>
LayerCount: 2
Fore
SplineSet
42 -142 m 1
 -23 -147 l 1
 51 101 l 1
 149 105 l 1
 42 -142 l 1
192 -142 m 1
 127 -147 l 1
 201 101 l 1
 299 105 l 1
 192 -142 l 1
EndSplineSet
Validated: 1
EndChar

StartChar: quotedblleft
Encoding: 8220 8220 178
Width: 342
Flags: MW
HStem: 463 272<20 194 150 194>
VStem: 20 304<463 735>
LayerCount: 2
Fore
SplineSet
100 467 m 1
 20 463 l 1
 137 730 l 1
 194 735 l 1
 100 467 l 1
230 467 m 1
 150 463 l 1
 267 730 l 1
 324 735 l 1
 230 467 l 1
EndSplineSet
Validated: 1
EndChar

StartChar: quotedblright
Encoding: 8221 8221 179
Width: 347
Flags: MW
HStem: 463 272<27 201 157 201>
VStem: 27 304<463 735>
LayerCount: 2
Fore
SplineSet
84 468 m 1
 27 463 l 1
 121 731 l 1
 201 735 l 1
 84 468 l 1
214 468 m 1
 157 463 l 1
 251 731 l 1
 331 735 l 1
 214 468 l 1
EndSplineSet
Validated: 1
EndChar

StartChar: quoteleft
Encoding: 8216 8216 180
Width: 212
Flags: MW
HStem: 463 272<20 194>
VStem: 20 174
LayerCount: 2
Fore
SplineSet
100 467 m 1
 20 463 l 1
 137 730 l 1
 194 735 l 1
 100 467 l 1
EndSplineSet
Validated: 1
EndChar

StartChar: quoteright
Encoding: 8217 8217 181
Width: 217
Flags: MW
HStem: 463 272<27 201>
VStem: 27 174
LayerCount: 2
Fore
SplineSet
84 468 m 1
 27 463 l 1
 121 731 l 1
 201 735 l 1
 84 468 l 1
EndSplineSet
Validated: 1
EndChar

StartChar: dollar
Encoding: 36 36 183
Width: 490
Flags: MW
HStem: 30 72<201.5 218> 560 72<281 281 281 300>
VStem: 85 87<457 507.5 457 516.5> 218 56<-46 30 30 30> 225 56<632 708 632 708 632 708> 332 90<168 219>
LayerCount: 2
Fore
SplineSet
417 597 m 1xf4
 406 522 l 1
 374 544 326 560 274 560 c 0
 216 560 172 531 172 484 c 0
 172 430 200 407 277 376 c 0
 383 333 422 286 422 201 c 0
 422 122 365 54 274 35 c 1
 274 -46 l 1
 218 -46 l 1
 218 30 l 1xf4
 162 30 112 42 62 70 c 1
 74 147 l 1
 127 114 178 102 225 102 c 0
 293 102 332 144 332 192 c 0
 332 246 309 272 237 302 c 0
 144 341 85 381 85 471 c 0
 85 562 142 614 225 628 c 1
 225 708 l 1
 281 708 l 1
 281 632 l 1xec
 336 631 389 616 417 597 c 1xf4
EndSplineSet
Validated: 1
EndChar

StartChar: sterling
Encoding: 163 163 184
Width: 480
Flags: MW
HStem: 1 72<164 441 164 441> 303 56<59 152 59 166 59 152 247 403 247 247> 600 72<304 364.5>
VStem: 138 80<444 503.5 444 523.5> 178 79<192 245.5 192 246>
LayerCount: 2
Fore
SplineSet
452 645 m 1xf0
 447 570 l 1
 418 590 385 600 344 600 c 0
 264 600 218 550 218 457 c 0
 218 431 223 395 233 359 c 1xf0
 403 359 l 1
 403 303 l 1
 247 303 l 1
 252 288 257 255 257 236 c 0
 257 148 226 105 164 73 c 1
 441 73 l 1
 441 1 l 1
 64 1 l 1
 64 65 l 1
 111 90 178 126 178 234 c 0
 178 258 175 283 166 303 c 1xe8
 59 303 l 1
 59 359 l 1
 152 359 l 1
 144 392 138 434 138 453 c 0
 138 594 220 672 344 672 c 0
 392 672 429 659 452 645 c 1xf0
EndSplineSet
Validated: 1
EndChar

StartChar: yen
Encoding: 165 165 185
Width: 490
Flags: MW
HStem: 207 54<68 205 68 205 287 424> 322 54<68 172 68 205 68 172 318 424>
VStem: 205 82<0 207 0 207 261 322>
LayerCount: 2
Fore
SplineSet
318 376 m 1
 424 376 l 1
 424 322 l 1
 287 322 l 1
 287 261 l 1
 424 261 l 1
 424 207 l 1
 287 207 l 1
 287 0 l 1
 205 0 l 1
 205 207 l 1
 68 207 l 1
 68 261 l 1
 205 261 l 1
 205 322 l 1
 68 322 l 1
 68 376 l 1
 172 376 l 1
 28 655 l 1
 130 655 l 1
 248 380 l 1
 373 655 l 1
 463 655 l 1
 318 376 l 1
EndSplineSet
Validated: 1
EndChar

StartChar: asciitilde
Encoding: 126 126 186
Width: 554
Flags: MW
HStem: 187 53<388 419 388 432> 276 53<135 166>
VStem: 48 51<183 217 183 237> 455 51<299 333>
LayerCount: 2
Fore
SplineSet
455 333 m 1
 506 333 l 1
 506 225 465 187 399 187 c 0
 363 187 329 199 264 234 c 0
 201 268 176 276 156 276 c 0
 114 276 99 251 99 183 c 1
 48 183 l 1
 48 291 89 329 155 329 c 0
 191 329 225 317 290 282 c 0
 353 247 378 240 398 240 c 0
 440 240 455 265 455 333 c 1
EndSplineSet
Validated: 1
EndChar

StartChar: equal
Encoding: 61 61 187
Width: 578
Flags: MW
HStem: 155 48<56 522 56 522> 337 48<56 522 56 522>
VStem: 56 466<155 203 155 203 337 385 155 385>
LayerCount: 2
Fore
SplineSet
522 337 m 1
 56 337 l 1
 56 385 l 1
 522 385 l 1
 522 337 l 1
522 155 m 1
 56 155 l 1
 56 203 l 1
 522 203 l 1
 522 155 l 1
EndSplineSet
Validated: 1
EndChar

StartChar: greater
Encoding: 62 62 188
Width: 527
Flags: MW
HStem: 4 493<61 61>
VStem: 411 51<249 249>
LayerCount: 2
Fore
SplineSet
462 286 m 1
 462 214 l 1
 61 4 l 1
 61 66 l 1
 411 249 l 1
 61 433 l 1
 61 497 l 1
 462 286 l 1
EndSplineSet
Validated: 1
EndChar

StartChar: less
Encoding: 60 60 189
Width: 527
Flags: MW
HStem: 4 493<466 466>
VStem: 65 51<252 252 252 287 252 287>
LayerCount: 2
Fore
SplineSet
466 435 m 1
 116 252 l 1
 466 68 l 1
 466 4 l 1
 65 215 l 1
 65 287 l 1
 466 497 l 1
 466 435 l 1
EndSplineSet
Validated: 1
EndChar

StartChar: percent
Encoding: 37 37 190
Width: 798
Flags: MW
HStem: -10 58<562 606 562 628.5> 284 58<562 606> 320 58<192 236 192 258.5> 614 58<192 236>
VStem: 59 76<456 536 456 549.5> 293 76<456 536> 429 76<126 206 126 219.5> 663 76<126 206>
LayerCount: 2
Fore
SplineSet
239 -20 m 1xbf
 175 -20 l 1
 559 682 l 1
 623 682 l 1
 239 -20 l 1xbf
214 672 m 0
 303 672 369 603 369 496 c 0
 369 389 303 320 214 320 c 0
 124 320 59 389 59 496 c 0
 59 603 124 672 214 672 c 0
214 614 m 0
 170 614 135 576 135 496 c 0
 135 416 170 378 214 378 c 0
 258 378 293 416 293 496 c 0
 293 576 258 614 214 614 c 0
584 342 m 0xdf
 673 342 739 273 739 166 c 0
 739 59 673 -10 584 -10 c 0
 494 -10 429 59 429 166 c 0
 429 273 494 342 584 342 c 0xdf
584 284 m 0
 540 284 505 246 505 166 c 0
 505 86 540 48 584 48 c 0
 628 48 663 86 663 166 c 0
 663 246 628 284 584 284 c 0
EndSplineSet
Validated: 1
EndChar

StartChar: plus
Encoding: 43 43 191
Width: 542
Flags: MW
HStem: 246 48<49 243 49 243 299 493>
VStem: 243 56<30 246 30 246 294 510>
LayerCount: 2
Fore
SplineSet
299 294 m 1
 493 294 l 1
 493 246 l 1
 299 246 l 1
 299 30 l 1
 243 30 l 1
 243 246 l 1
 49 246 l 1
 49 294 l 1
 243 294 l 1
 243 510 l 1
 299 510 l 1
 299 294 l 1
EndSplineSet
Validated: 1
EndChar

StartChar: ampersand
Encoding: 38 38 192
Width: 627
Flags: MW
HStem: -10 72<206.5 272 206.5 275> 626 72<237.5 279.5>
VStem: 22 92<147 211.5 147 215.5> 93 92<516 563.5 516 580> 330 89<526 576.5>
LayerCount: 2
Fore
SplineSet
490 -1 m 1xe8
 441 56 l 1
 387 13 317 -10 233 -10 c 0
 126 -10 22 56 22 174 c 0xe8
 22 257 87 324 167 378 c 1
 119 436 93 480 93 533 c 0xd8
 93 627 156 698 265 698 c 0
 355 698 419 641 419 558 c 0
 419 465 352 404 281 362 c 1
 440 179 l 1
 472 226 491 282 496 336 c 1
 581 336 l 1
 570 247 542 171 498 113 c 1
 598 -1 l 1
 490 -1 l 1xe8
259 626 m 0xd8
 216 626 185 589 185 538 c 0
 185 494 204 456 233 418 c 1
 305 462 330 500 330 552 c 0
 330 601 300 626 259 626 c 0xd8
388 119 m 1
 214 322 l 1
 159 286 114 240 114 183 c 0xe8
 114 111 168 62 245 62 c 0
 299 62 348 84 388 119 c 1
EndSplineSet
Validated: 1
EndChar

StartChar: asciicircum
Encoding: 94 94 193
Width: 466
Flags: MW
HStem: 481 60<234 234>
VStem: 54 358<225 225>
LayerCount: 2
Fore
SplineSet
412 225 m 1
 348 225 l 1
 234 481 l 1
 117 225 l 1
 54 225 l 1
 205 541 l 1
 264 541 l 1
 412 225 l 1
EndSplineSet
Validated: 1
EndChar

StartChar: at
Encoding: 64 64 194
Width: 848
Flags: HMW
HStem: -136 50<319.5 431> 44 61<375 395.5> 48 55<596 640.5> 370 62<433.5 484> 554 55<361 539>
VStem: 58 60<117 306.5 117 316> 241 78<167 253.5 167 265.5> 729 58<226 354.5>
LayerCount: 2
Fore
SplineSet
611 -33 m 1xbf
 614 -83 l 1
 547 -120 473 -136 389 -136 c 0
 215 -136 58 -14 58 191 c 0
 58 441 249 609 463 609 c 0
 658 609 787 454 787 291 c 0
 787 134 693 48 588 48 c 0xbf
 539 48 506 72 494 117 c 1
 471 72 422 44 369 44 c 0xdf
 298 44 241 102 241 193 c 0
 241 338 340 432 485 432 c 0
 523 432 574 421 598 409 c 1
 564 178 l 2
 563.122964929 171.234300882 562.701165061 164.98662803 562.701165061 159.23338003 c 0
 562.701165061 119.067442653 583.25988463 103 613 103 c 0
 673 103 729 176 729 276 c 0
 729 433 628 554 450 554 c 0
 272 554 118 405 118 208 c 0
 118 26 239 -86 400 -86 c 0
 474 -86 547 -71 611 -33 c 1xbf
498 237 m 2
 516 366 l 1
 504 369 491 370 477 370 c 0
 390 370 319 307 319 200 c 0
 319 134 357 105 393 105 c 0xdf
 452 105 487 160 498 237 c 2
EndSplineSet
Validated: 1
EndChar

StartChar: bar
Encoding: 124 124 195
Width: 296
Flags: MW
HStem: -235 1000<120 176 120 176>
VStem: 120 56<-235 765>
LayerCount: 2
Fore
SplineSet
176 -235 m 1
 120 -235 l 1
 120 765 l 1
 176 765 l 1
 176 -235 l 1
EndSplineSet
Validated: 1
EndChar

StartChar: Euro
Encoding: 8364 8364 196
Width: 490
Flags: HMW
HStem: -10 72<294.5 362> 232 54<57 85 57 89 53 85 181 369 181 181> 354 54<65 85 61 89 178 379> 600 72<295.5 370.5>
VStem: 85 90<286 354 286 354>
LayerCount: 2
Fore
SplineSet
65 408 m 1
 89 408 l 1
 108 575 195 672 353 672 c 0
 406 672 447 660 468 643 c 1
 462 566 l 1
 433 591 393 600 348 600 c 0
 243 600 191 533 178 408 c 1
 384 408 l 1
 379 354 l 1
 175 354 l 1
 174.5 346.5 174.25 334.25 174.25 321.5 c 0
 174.25 308.75 174.5 295.5 175 286 c 1
 373 286 l 1
 369 232 l 1
 181 232 l 1
 196 123 244 62 345 62 c 0
 392 62 430 77 457 98 c 1
 464 24 l 1
 427 -1 391 -10 333 -10 c 0
 188 -10 106 79 89 232 c 1
 53 232 l 1
 57 286 l 1
 85 286 l 1
 84.5 295 84.25 307.75 84.25 320.375 c 0
 84.25 333 84.5 345.5 85 354 c 1
 61 354 l 1
 65 408 l 1
EndSplineSet
Validated: 1
EndChar

StartChar: acute
Encoding: 180 180 197
Width: 500
Flags: MW
HStem: 538 115
VStem: 163 174<536 655>
LayerCount: 2
Fore
SplineSet
231 540 m 1
 163 536 l 1
 246 651 l 1
 337 655 l 1
 231 540 l 1
EndSplineSet
Validated: 1
EndChar

StartChar: breve
Encoding: 728 728 198
Width: 500
Flags: MW
HStem: 537 47<233 267 233 287>
VStem: 145 45<622.5 653> 310 45<622.5 653>
LayerCount: 2
Fore
SplineSet
145 653 m 1
 190 653 l 1
 194 609 216 584 250 584 c 0
 284 584 306 609 310 653 c 1
 355 653 l 1
 355 592 324 537 250 537 c 0
 175 537 145 592 145 653 c 1
EndSplineSet
Validated: 1
EndChar

StartChar: cedilla
Encoding: 184 184 199
Width: 500
Flags: MW
HStem: -168 38<221 245 221 257.5> -58 68<201 283>
VStem: 274 58<-106 -84>
LayerCount: 2
Fore
SplineSet
283 10 m 1
 263 -26 l 1
 306 -33 332 -55 332 -93 c 0
 332 -143 292 -168 223 -168 c 0
 206 -168 185 -164 169 -155 c 1
 174 -116 l 1
 190 -125 210 -130 232 -130 c 0
 258 -130 274 -116 274 -96 c 0
 274 -72 257 -58 201 -58 c 1
 238 10 l 1
 283 10 l 1
EndSplineSet
Validated: 1
EndChar

StartChar: circumflex
Encoding: 710 710 200
Width: 500
Flags: MW
HStem: 539 116<134 280 134 280 221 367 221 303>
VStem: 134 233<539 539>
LayerCount: 2
Fore
SplineSet
367 539 m 1
 303 539 l 1
 250 614 l 1
 197 539 l 1
 134 539 l 1
 221 655 l 1
 280 655 l 1
 367 539 l 1
EndSplineSet
Validated: 1
EndChar

StartChar: dieresis
Encoding: 168 168 201
Width: 500
Flags: MW
HStem: 535 92<159.5 184.5 315.5 340.5>
VStem: 126 92<568.5 593.5> 282 92<568.5 593.5>
LayerCount: 2
Fore
SplineSet
172 627 m 0
 197 627 218 606 218 581 c 0
 218 556 197 535 172 535 c 0
 147 535 126 556 126 581 c 0
 126 606 147 627 172 627 c 0
328 627 m 0
 353 627 374 606 374 581 c 0
 374 556 353 535 328 535 c 0
 303 535 282 556 282 581 c 0
 282 606 303 627 328 627 c 0
EndSplineSet
Validated: 1
EndChar

StartChar: grave
Encoding: 96 96 202
Width: 500
Flags: MW
HStem: 538 115
VStem: 141 174<536 655>
LayerCount: 2
Fore
SplineSet
232 651 m 1
 315 536 l 1
 247 540 l 1
 141 655 l 1
 232 651 l 1
EndSplineSet
Validated: 1
EndChar

StartChar: ring
Encoding: 730 730 203
Width: 500
Flags: MW
HStem: 529 31<240.5 259.5 240.5 272.5> 644 31<240.5 259.5>
VStem: 172 44<588 615.5 588 624.5> 284 44<588 615.5>
LayerCount: 2
Fore
SplineSet
250 675 m 0
 295 675 328 647 328 602 c 0
 328 557 295 529 250 529 c 0
 205 529 172 557 172 602 c 0
 172 647 205 675 250 675 c 0
250 644 m 0
 231 644 216 629 216 602 c 0
 216 574 231 560 250 560 c 0
 269 560 284 574 284 602 c 0
 284 629 269 644 250 644 c 0
EndSplineSet
Validated: 1
EndChar

StartChar: tilde
Encoding: 732 732 204
Width: 500
Flags: MW
HStem: 556 51<297.5 309 297.5 320> 579 51<191 202.5>
VStem: 140 38<555 561.5 555 564 555 586> 322 38<624.5 631>
LayerCount: 2
Fore
SplineSet
360 631 m 1xb0
 360 622 l 2
 360 578 337 556 303 556 c 0xb0
 284 556 264 562 242 568 c 0
 221 575 207 579 198 579 c 0
 184 579 178 568 178 555 c 1
 140 555 l 1
 140 564 l 2
 140 608 163 630 197 630 c 0x70
 216 630 236 624 258 617 c 0
 279 611 293 607 302 607 c 0
 316 607 322 618 322 631 c 1
 360 631 l 1xb0
EndSplineSet
Validated: 1
EndChar

StartChar: ccaron
Encoding: 269 269 205
Width: 430
Flags: W
HStem: -10 66<201.53 388.805> 420 68<203.096 385.727>
VStem: 38 90<136.429 338.309>
LayerCount: 2
Fore
SplineSet
377 655 m 1
 290 539 l 1
 231 539 l 1
 144 655 l 1
 207 655 l 1
 260 580 l 1
 313 655 l 1
 377 655 l 1
389 80 m 1
 396 13 l 1
 363 0 319 -10 270 -10 c 0
 140 -10 38 67 38 233 c 0
 38 400 155 488 284 488 c 0
 332 488 374 479 401 466 c 1
 394 394 l 1
 365 410 329 420 287 420 c 0
 198 420 128 362 128 239 c 0
 128 120 187 56 288 56 c 0
 322 56 359 65 389 80 c 1
EndSplineSet
Validated: 1
EndChar

StartChar: Ccaron
Encoding: 268 268 206
Width: 621
Flags: W
HStem: -10 72<288.375 531.686> 626 72<297.387 536.236>
VStem: 44 92<222.229 462.929>
LayerCount: 2
Fore
SplineSet
486 857 m 1
 399 741 l 1
 340 741 l 1
 253 857 l 1
 316 857 l 1
 369 782 l 1
 422 857 l 1
 486 857 l 1
577 103 m 1
 584 29 l 1
 524 0 459 -10 385 -10 c 0
 190 -10 44 119 44 339 c 0
 44 586 226 698 404 698 c 0
 484 698 550 682 592 656 c 1
 586 581 l 1
 533 612 476 626 399 626 c 0
 271 626 136 533 136 346 c 0
 136 151 262 62 396 62 c 0
 465 62 519 74 577 103 c 1
EndSplineSet
Validated: 1
EndChar

StartChar: scaron
Encoding: 353 353 207
Width: 369
Flags: W
HStem: -10 68<41.9819 224.949> 420 68<153.182 312.651>
VStem: 49 84<301.357 400.275> 251 83<82.7566 174.707>
LayerCount: 2
Fore
SplineSet
327 655 m 1
 240 539 l 1
 181 539 l 1
 94 655 l 1
 157 655 l 1
 210 580 l 1
 263 655 l 1
 327 655 l 1
33 12 m 1
 38 81 l 1
 82 64 114 58 150 58 c 0
 206 58 251 84 251 128 c 0
 251 166 227 185 176 204 c 0
 94 235 49 270 49 346 c 0
 49 446 131 488 217 488 c 0
 255 488 299 478 324 465 c 1
 319 395 l 1
 294 410 256 420 213 420 c 0
 167 420 133 393 133 355 c 0
 133 308 163 288 203 275 c 0
 294 246 334 206 334 134 c 0
 334 42 251 -10 149 -10 c 0
 107 -10 71 -3 33 12 c 1
EndSplineSet
Validated: 1
EndChar

StartChar: Scaron
Encoding: 352 352 208
Width: 496
Flags: W
HStem: -10 72<106.841 299.1> 626 72<215.169 391.333>
VStem: 73 87<444.979 574.213> 356 90<113.074 243.233>
LayerCount: 2
Fore
SplineSet
413 857 m 1
 326 741 l 1
 267 741 l 1
 180 857 l 1
 243 857 l 1
 296 782 l 1
 349 857 l 1
 413 857 l 1
46 31 m 1
 56 109 l 1
 106 76 172 62 219 62 c 0
 300 62 356 112 356 176 c 0
 356 235 321 273 241 304 c 0
 142 342 73 397 73 499 c 0
 73 622 165 698 298 698 c 0
 346 698 406 682 435 663 c 1
 425 585 l 1
 395 607 343 626 291 626 c 0
 220 626 160 579 160 514 c 0
 160 449 200 408 281 378 c 0
 394 336 446 280 446 189 c 0
 446 75 354 -10 212 -10 c 0
 155 -10 94 3 46 31 c 1
EndSplineSet
Validated: 1
EndChar

StartChar: Zcaron
Encoding: 381 381 209
Width: 532
Flags: W
HStem: 0 72<139 508> 612 72<65 400>
LayerCount: 2
Fore
SplineSet
414 857 m 1
 327 741 l 1
 268 741 l 1
 181 857 l 1
 244 857 l 1
 297 782 l 1
 350 857 l 1
 414 857 l 1
503 616 m 1
 139 72 l 1
 508 72 l 1
 508 0 l 1
 36 0 l 1
 36 65 l 1
 400 612 l 1
 65 612 l 1
 65 684 l 1
 503 684 l 1
 503 616 l 1
EndSplineSet
Validated: 1
EndChar

StartChar: zcaron
Encoding: 382 382 210
Width: 396
Flags: W
HStem: 0 64<119 370> 410 64<42 273>
LayerCount: 2
Fore
SplineSet
329 655 m 1
 242 539 l 1
 183 539 l 1
 96 655 l 1
 159 655 l 1
 212 580 l 1
 265 655 l 1
 329 655 l 1
369 410 m 1
 119 64 l 1
 370 64 l 1
 370 0 l 1
 26 0 l 1
 26 61 l 1
 273 410 l 1
 42 410 l 1
 42 474 l 1
 369 474 l 1
 369 410 l 1
EndSplineSet
Validated: 1
EndChar

StartChar: cacute
Encoding: 263 263 211
Width: 430
Flags: W
HStem: -10 66<201.53 388.805> 420 68<203.096 385.727>
VStem: 38 90<136.429 338.309>
LayerCount: 2
Fore
SplineSet
231 539 m 1
 313 655 l 1
 377 655 l 1
 290 539 l 1
 231 539 l 1
389 80 m 1
 396 13 l 1
 363 0 319 -10 270 -10 c 0
 140 -10 38 67 38 233 c 0
 38 400 155 488 284 488 c 0
 332 488 374 479 401 466 c 1
 394 394 l 1
 365 410 329 420 287 420 c 0
 198 420 128 362 128 239 c 0
 128 120 187 56 288 56 c 0
 322 56 359 65 389 80 c 1
EndSplineSet
Validated: 1
EndChar

StartChar: Cacute
Encoding: 262 262 212
Width: 621
Flags: W
HStem: -10 72<288.375 531.686> 626 72<297.387 536.236>
VStem: 44 92<222.229 462.929>
LayerCount: 2
Fore
SplineSet
292 741 m 1
 374 857 l 1
 438 857 l 1
 351 741 l 1
 292 741 l 1
577 103 m 1
 584 29 l 1
 524 0 459 -10 385 -10 c 0
 190 -10 44 119 44 339 c 0
 44 586 226 698 404 698 c 0
 484 698 550 682 592 656 c 1
 586 581 l 1
 533 612 476 626 399 626 c 0
 271 626 136 533 136 346 c 0
 136 151 262 62 396 62 c 0
 465 62 519 74 577 103 c 1
EndSplineSet
Validated: 1
EndChar

StartChar: Dcroat
Encoding: 272 272 213
Width: 665
Flags: W
HStem: -10 72<159.099 352.882> 338 81<0 76 159 306> 626 72<159.746 374.606>
VStem: 76 82<64.511 338 419 622.483> 535 89<234.791 472.736>
LayerCount: 2
Fore
SplineSet
76 338 m 5
 0 338 l 5
 0 419 l 5
 77 419 l 5
 76 686 l 5
 136 693 199 698 243 698 c 4
 500 698 624 560 624 358 c 4
 624 123 452 -10 217 -10 c 4
 179 -10 116 -5 76 3 c 5
 76 338 l 5
159 339 m 5
 158 67 l 5
 180 64 208 62 223 62 c 4
 402 62 535 165 535 348 c 4
 535 526 436 626 240 626 c 4
 218 626 188 624 158 620 c 5
 158 418 l 5
 306 419 l 5
 306 340 l 5
 159 339 l 5
EndSplineSet
Validated: 1
EndChar

StartChar: dcroat
Encoding: 273 273 214
Width: 543
Flags: W
HStem: -10 71<192.622 324.203> 0 21G<397.621 473> 419 69<197.017 327.334> 533 60<275 391 473 535> 715 20G<391 473>
VStem: 38 90<134.749 341.03> 391 82<130.969 349.859 404 534 595 735> 399 74<0 87>
LayerCount: 2
Fore
SplineSet
391 534 m 1xbe
 275 533 l 1
 275 593 l 1
 391 594 l 1
 391 735 l 1
 473 735 l 1
 473 595 l 1xbe
 535 596 l 1
 535 536 l 1
 473 535 l 1
 473 0 l 1
 399 0 l 1x7d
 393 87 l 1
 364 29 312 -10 243 -10 c 0
 121 -10 38 88 38 233 c 0
 38 383 129 488 256 488 c 0
 321 488 373 452 391 404 c 1
 391 534 l 1xbe
391 208 m 2
 391 260 l 2
 391 350 335 419 263 419 c 0
 186 419 128 349 128 237 c 0
 128 141 174 61 260 61 c 0
 326 61 391 125 391 208 c 2
EndSplineSet
Validated: 1
EndChar
